<svg xmlns="http://www.w3.org/2000/svg" version="1.1" xmlns:xlink="http://www.w3.org/1999/xlink" xmlns:svgjs="http://svgjs.dev/svgjs" viewBox="0 0 800 800"><defs><linearGradient x1="50%" y1="0%" x2="50%" y2="100%" id="ccchaos-grad"><stop stop-color="hsl(206, 75%, 49%)" stop-opacity="1" offset="0%"></stop><stop stop-color="hsl(331, 90%, 56%)" stop-opacity="1" offset="100%"></stop></linearGradient></defs><g stroke-width="2" stroke="url(#ccchaos-grad)" fill="none" stroke-linecap="round"><path d="M404.72 113.05C414.7 110.84 424.9 109.22 435.3 108.22 445.73 107.38 456.37 107.23 467.18 107.76 478.01 108.54 489.01 110.05 500.09 112.27 511.13 114.77 522.19 117.98 533.13 121.86 543.89 126.02 554.37 130.82 564.39 136.2 573.99 141.81 582.89 147.96 590.9 154.59 598.19 161.38 604.36 168.59 609.24 176.17 613.26 183.84 615.92 191.83 617.24 200.09 617.9 208.37 617.48 216.89 616.21 225.6 615 234.29 613.6 243.15 612.41 252.16 612.36 261.12 613.31 270.22 615.64 279.44 619.98 288.6 626.1 297.89 634.03 307.29 643.88 316.64 655.08 326.12 667.15 335.7 679.71 345.26 691.85 354.94 702.75 364.73 712.01 374.51 718.67 384.42 722.15 394.44 722.65 404.46 719.61 414.6 713.21 424.84 704.54 435.08 693.93 445.18 682.32 455.1 670.92 465.02 660.22 474.75 650.92 484.25 643.83 493.73 638.93 502.95 636.26 511.87 636.13 520.74 637.79 529.27 640.77 537.41 645.11 545.45 649.67 553.07 653.86 560.2 659.12 570.44 659.97 587.94 654.59 595.11 648.87 599.52 641.42 603.35 632.5 606.59 622.55 609.74 611.61 612.35 599.98 614.47 587.93 616.61 575.63 618.37 563.3 619.8 551.02 621.44 538.94 622.9 527.17 624.26 515.66 626.04 504.51 627.87 493.72 629.83 483.21 632.4 472.99 635.22 463.04 638.32 453.28 642.12 443.68 646.25 434.21 650.68 424.82 655.76 415.48 661.06 406.15 666.48 396.85 672.33 387.52 678.1 378.16 683.64 368.8 689.23 359.63 694.17 350.68 698.35 341.74 702.19 333.03 705.04 324.6 706.83 316.2 708.03 308.11 708.07 300.37 706.94 292.69 705.12 285.38 702.15 278.47 698.11 271.59 693.42 265.11 687.76 259.02 681.23 252.89 674.23 247.1 666.51 241.61 658.18 235.96 649.59 230.5 640.54 225.19 631.15 219.56 621.68 213.95 611.98 208.31 602.15 202.24 592.36 196.07 582.51 189.8 572.65 183.09 562.92 176.33 553.19 169.56 543.52 162.54 533.99 155.68 524.5 149.11 515.05 142.61 505.74 136.63 496.44 131.3 487.16 126.37 477.99 122.27 468.79 119.1 459.57 116.47 450.42 114.77 441.21 114.01 431.95 113.64 422.72 114.02 413.41 115.05 404.03 116.09 394.66 117.48 385.22 119.12 375.7 120.32 366.19 121.52 356.84 122.65 347.67 123.2 338.5 123.73 329.52 124.27 320.75 124.44 312.01 124.84 303.49 125.59 295.24 126.35 287.01 127.71 279.06 129.76 271.43 132.18 263.83 135.44 256.55 139.57 249.62 144.21 242.73 149.71 236.2 155.99 230.04 162.69 223.91 170.04 218.15 177.91 212.78 185.97 207.4 194.36 202.37 202.99 197.72 211.54 193.01 220.18 188.62 228.83 184.56 237.24 180.38 245.62 176.48 253.95 172.83 261.96 169 269.96 165.39 277.94 161.97 285.66 158.31 293.43 154.8 301.31 151.46 308.98 147.83 316.84 144.34 324.91 141.01 332.84 137.39 341.06 133.94 349.58 130.68 358.03 127.2 366.84 123.97 376.02 121.03 385.16 117.97 394.72 115.29 404.7 113.06" stroke-dasharray="8 1" transform="rotate(0, 400, 400)" opacity="0.95"></path><path d="M411.46 124.03C421.22 121.84 431.14 120.22 441.2 119.19 451.28 118.3 461.5 118.07 471.81 118.5 482.12 119.16 492.48 120.5 502.81 122.53 513.06 124.82 523.18 127.79 533.05 131.4 542.69 135.27 551.91 139.76 560.57 144.82 568.77 150.1 576.2 155.91 582.7 162.2 588.54 168.65 593.31 175.52 596.89 182.77 599.8 190.11 601.55 197.78 602.21 205.73 602.49 213.72 602.01 221.95 601 230.38 600.32 238.82 599.73 247.43 599.57 256.19 600.66 264.92 602.83 273.8 606.36 282.78 611.75 291.73 618.73 300.81 627.26 309.97 637.37 319.11 648.52 328.35 660.24 337.69 672.17 347.01 683.5 356.43 693.5 365.94 701.89 375.43 707.79 385.03 710.72 394.72 710.92 404.4 707.9 414.17 701.79 424 693.61 433.84 683.62 443.5 672.64 452.96 661.77 462.42 651.39 471.66 642.16 480.65 634.85 489.62 629.44 498.31 626.03 506.69 624.96 515.01 625.6 522.99 627.59 530.57 631.02 538.06 634.89 545.13 638.68 551.74 643.98 561.21 647.15 577.39 643.82 584.02 639.71 588.14 633.95 591.73 626.71 594.8 618.42 597.81 609.01 600.37 598.75 602.49 587.93 604.68 576.63 606.54 565.1 608.12 553.43 609.94 541.78 611.62 530.27 613.23 518.88 615.25 507.73 617.33 496.88 619.53 486.21 622.3 475.83 625.29 465.71 628.52 455.76 632.4 446.01 636.55 436.46 640.94 426.99 645.92 417.65 651.07 408.42 656.29 399.22 661.9 390.08 667.4 381.02 672.67 371.96 677.98 363.17 682.68 354.66 686.66 346.16 690.35 337.94 693.13 330.05 694.92 322.16 696.19 314.61 696.38 307.41 695.5 300.22 693.99 293.39 691.41 286.93 687.82 280.45 683.64 274.31 678.52 268.49 672.57 262.58 666.16 256.93 659.04 251.49 651.31 245.84 643.3 240.31 634.82 234.85 625.96 229.05 616.99 223.22 607.76 217.34 598.34 211.03 588.94 204.63 579.43 198.14 569.87 191.28 560.39 184.4 550.9 177.56 541.43 170.57 532.07 163.79 522.73 157.35 513.43 151.06 504.25 145.32 495.07 140.27 485.93 135.64 476.87 131.86 467.81 128.98 458.76 126.64 449.76 125.21 440.73 124.67 431.68 124.51 422.66 125.06 413.59 126.22 404.49 127.37 395.4 128.85 386.27 130.54 377.1 131.81 367.93 133.04 358.95 134.2 350.17 134.77 341.39 135.3 332.82 135.81 324.48 135.92 316.15 136.22 308.06 136.81 300.23 137.36 292.43 138.46 284.9 140.18 277.69 142.21 270.49 145.05 263.61 148.69 257.07 152.83 250.55 157.81 244.36 163.57 238.54 169.78 232.72 176.67 227.24 184.12 222.12 191.84 216.97 199.96 212.16 208.37 207.68 216.81 203.13 225.41 198.87 234.08 194.91 242.6 190.82 251.13 186.98 259.63 183.37 267.89 179.58 276.12 175.99 284.33 172.57 292.31 168.92 300.31 165.42 308.37 162.07 316.23 158.46 324.22 154.98 332.38 151.65 340.39 148.06 348.64 144.64 357.13 141.41 365.55 137.98 374.27 134.79 383.31 131.89 392.33 128.88 401.7 126.24 411.45 124.03" stroke-dasharray="4 3" transform="rotate(4.04, 400, 400)" opacity="0.39"></path><path d="M417.02 135C426.51 132.84 436.08 131.22 445.73 130.17 455.37 129.25 465.06 128.95 474.76 129.27 484.42 129.81 494.02 131 503.47 132.83 512.81 134.92 521.9 137.64 530.63 140.98 539.1 144.58 547.05 148.76 554.36 153.5 561.24 158.45 567.32 163.92 572.48 169.85 577.1 175.94 580.73 182.46 583.32 189.35 585.43 196.35 586.62 203.68 586.97 211.29 587.2 218.96 586.94 226.88 586.45 235 586.49 243.14 586.83 251.47 587.77 259.95 589.99 268.42 593.31 277.03 597.92 285.75 604.19 294.46 611.86 303.27 620.8 312.18 631.02 321.07 641.98 330.05 653.23 339.11 664.48 348.16 674.98 357.3 684.1 366.5 691.63 375.7 696.81 384.97 699.24 394.3 699.18 403.63 696.18 413.01 690.36 422.43 682.67 431.85 673.28 441.08 662.93 450.08 652.58 459.08 642.57 467.84 633.48 476.33 626.02 484.8 620.2 492.98 616.15 500.84 614.22 508.64 613.9 516.09 614.92 523.16 617.41 530.14 620.5 536.71 623.74 542.83 628.76 551.63 633.44 566.65 631.78 572.84 629.08 576.73 624.85 580.13 619.19 583.08 612.54 586.01 604.71 588.54 595.92 590.7 586.49 592.96 576.42 594.94 565.93 596.69 555.16 598.7 544.23 600.59 533.28 602.43 522.31 604.68 511.46 606.98 500.8 609.4 490.25 612.34 479.91 615.47 469.82 618.82 459.85 622.74 450.09 626.88 440.55 631.23 431.09 636.09 421.8 641.07 412.69 646.09 403.6 651.45 394.65 656.7 385.85 661.69 377.04 666.74 368.57 671.2 360.43 674.99 352.29 678.52 344.47 681.21 336.99 683 329.5 684.32 322.35 684.65 315.55 683.98 308.72 682.76 302.22 680.54 296.05 677.37 289.81 673.66 283.85 669.07 278.16 663.67 272.32 657.84 266.66 651.31 261.16 644.17 255.4 636.75 249.71 628.85 244.03 620.55 238 612.1 231.93 603.37 225.78 594.42 219.25 585.44 212.64 576.31 205.97 567.11 199.01 557.95 192.07 548.75 185.24 539.54 178.33 530.41 171.69 521.28 165.45 512.18 159.42 503.17 153.98 494.18 149.24 485.21 144.95 476.32 141.49 467.43 138.93 458.56 136.89 449.74 135.73 440.92 135.42 432.09 135.45 423.29 136.15 414.48 137.42 405.66 138.67 396.85 140.22 388.02 141.97 379.19 143.28 370.36 144.56 361.74 145.74 353.33 146.35 344.93 146.88 336.74 147.37 328.8 147.45 320.86 147.67 313.17 148.14 305.75 148.52 298.34 149.37 291.21 150.79 284.37 152.46 277.55 154.88 271.03 158.05 264.84 161.68 258.65 166.12 252.78 171.32 247.25 176.99 241.7 183.35 236.48 190.31 231.58 197.59 226.64 205.33 222 213.42 217.67 221.63 213.26 230.06 209.11 238.64 205.23 247.14 201.22 255.71 197.43 264.29 193.85 272.7 190.1 281.1 186.51 289.49 183.1 297.68 179.47 305.88 175.97 314.11 172.62 322.17 169.02 330.32 165.55 338.57 162.24 346.7 158.69 354.99 155.3 363.48 152.1 371.89 148.73 380.55 145.59 389.46 142.73 398.35 139.78 407.53 137.18 417.01 135" stroke-dasharray="6 7" transform="rotate(8.08, 400, 400)" opacity="1.00"></path><path d="M420.82 145.97C429.98 143.84 439.15 142.23 448.3 141.16 457.44 140.21 466.53 139.85 475.51 140.07 484.45 140.5 493.21 141.54 501.73 143.19 510.11 145.07 518.15 147.56 525.73 150.64 533.06 153.95 539.82 157.84 545.89 162.24 551.59 166.86 556.52 171.98 560.58 177.55 564.24 183.29 567.02 189.44 568.95 195.96 570.6 202.6 571.54 209.57 571.89 216.82 572.35 224.14 572.57 231.71 572.78 239.5 573.67 247.32 575.01 255.33 577.06 263.49 580.36 271.66 584.71 279.98 590.25 288.4 597.25 296.83 605.41 305.36 614.6 313.97 624.77 322.58 635.41 331.27 646.11 340.03 656.63 348.78 666.28 357.6 674.53 366.48 681.25 375.35 685.76 384.27 687.72 393.23 687.43 402.19 684.46 411.18 678.94 420.18 671.71 429.18 662.91 437.96 653.17 446.51 643.36 455.05 633.74 463.34 624.84 471.35 617.32 479.33 611.18 487.02 606.59 494.38 603.9 501.7 602.7 508.66 602.78 515.25 604.32 521.77 606.57 527.88 609.15 533.57 613.61 541.77 619.04 555.81 618.65 561.64 615.66 566.97 601.71 575.63 591.27 579.13 583.3 581.47 574.58 583.59 565.3 585.52 555.65 587.71 545.68 589.81 535.53 591.87 525.27 594.32 514.98 596.82 504.77 599.43 494.57 602.52 484.52 605.77 474.65 609.19 464.85 613.13 455.24 617.25 445.84 621.52 436.5 626.26 427.35 631.07 418.39 635.89 409.47 641 400.72 645.99 392.15 650.72 383.58 655.5 375.37 659.72 367.53 663.32 359.67 666.7 352.15 669.3 344.98 671.06 337.78 672.42 330.91 672.87 324.36 672.4 317.75 671.43 311.44 669.54 305.41 666.76 299.27 663.5 293.37 659.39 287.66 654.53 281.77 649.25 276.01 643.3 270.34 636.75 264.41 629.92 258.49 622.59 252.55 614.86 246.29 606.96 239.96 598.75 233.57 590.3 226.85 581.78 220.08 573.09 213.3 564.29 206.29 555.5 199.37 546.64 192.62 537.75 185.87 528.91 179.44 520.05 173.46 511.2 167.74 502.42 162.63 493.65 158.24 484.9 154.32 476.21 151.21 467.54 148.98 458.89 147.24 450.28 146.33 441.68 146.24 433.1 146.45 424.55 147.29 415.99 148.67 407.46 150 398.93 151.61 390.41 153.39 381.92 154.75 373.42 156.06 365.14 157.27 357.1 157.92 349.05 158.47 341.23 158.97 333.67 159.03 326.1 159.21 318.78 159.57 311.73 159.81 304.69 160.46 297.92 161.61 291.44 162.95 284.96 164.96 278.77 167.67 272.89 170.79 267 174.69 261.41 179.32 256.13 184.41 250.83 190.19 245.83 196.59 241.12 203.35 236.36 210.61 231.88 218.28 227.67 226.14 223.38 234.28 219.32 242.62 215.51 250.99 211.56 259.46 207.81 268 204.26 276.45 200.53 284.91 196.96 293.38 193.55 301.71 189.93 310.04 186.44 318.39 183.09 326.6 179.51 334.86 176.07 343.18 172.77 351.41 169.26 359.74 165.91 368.2 162.76 376.61 159.45 385.18 156.36 393.94 153.56 402.68 150.67 411.64 148.12 420.8 145.97" stroke-dasharray="6 4" transform="rotate(12.12, 400, 400)" opacity="0.30"></path><path d="M422.45 156.94C431.25 154.85 439.96 153.26 448.56 152.17 457.14 151.19 465.57 150.77 473.81 150.91 481.98 151.23 489.9 152.13 497.48 153.6 504.92 155.29 511.94 157.55 518.46 160.37 524.75 163.41 530.45 166.99 535.47 171.07 540.2 175.36 544.21 180.13 547.46 185.33 550.43 190.7 552.69 196.48 554.27 202.61 555.75 208.87 556.74 215.46 557.37 222.33 558.28 229.28 559.15 236.49 560.2 243.91 562 251.38 564.36 259.04 567.46 266.86 571.74 274.7 576.99 282.69 583.3 290.79 590.84 298.89 599.32 307.1 608.57 315.39 618.55 323.69 628.77 332.06 638.84 340.49 648.59 348.91 657.4 357.4 664.8 365.92 670.75 374.44 674.62 383.01 676.16 391.58 675.67 400.15 672.75 408.74 667.51 417.31 660.74 425.88 652.51 434.23 643.37 442.32 634.1 450.41 624.9 458.24 616.24 465.79 608.73 473.31 602.37 480.53 597.33 487.43 593.98 494.29 591.98 500.8 591.19 506.95 592.49 515.9 598.71 531.74 601.87 538.59 603.66 550.3 593.01 564.23 584.69 567.82 578.17 570.27 570.84 572.53 562.86 574.63 554.46 576.99 545.61 579.28 536.45 581.55 527.1 584.17 517.59 586.85 508.04 589.62 498.44 592.82 488.88 596.16 479.43 599.64 469.99 603.57 460.69 607.65 451.57 611.84 442.48 616.43 433.56 621.06 424.83 625.68 416.13 630.55 407.6 635.27 399.26 639.75 390.92 644.26 382.95 648.26 375.33 651.67 367.7 654.89 360.41 657.38 353.44 659.12 346.43 660.5 339.72 661.05 333.31 660.75 326.81 660.01 320.57 658.42 314.56 656.01 308.41 653.15 302.45 649.51 296.63 645.15 290.61 640.4 284.67 635.01 278.78 629.04 272.63 622.78 266.47 616.04 260.28 608.88 253.79 601.54 247.25 593.87 240.66 585.94 233.82 577.92 226.95 569.71 220.13 561.35 213.17 552.98 206.34 544.5 199.75 535.97 193.22 527.47 187.08 518.93 181.41 510.38 176.05 501.88 171.33 493.38 167.32 484.9 163.78 476.46 161.03 468.03 159.13 459.64 157.69 451.28 157.03 442.93 157.14 434.61 157.52 426.32 158.49 418.05 159.95 409.8 161.35 401.57 163 393.36 164.82 385.19 166.22 377.02 167.56 369.08 168.79 361.38 169.48 353.68 170.07 346.21 170.58 339 170.66 331.78 170.81 324.81 171.1 318.11 171.23 311.4 171.71 304.96 172.62 298.8 173.66 292.63 175.3 286.74 177.59 281.14 180.22 275.52 183.57 270.18 187.63 265.13 192.12 260.04 197.29 255.23 203.08 250.69 209.25 246.09 215.95 241.74 223.1 237.64 230.49 233.44 238.22 229.47 246.21 225.71 254.29 221.81 262.54 218.1 270.9 214.57 279.24 210.86 287.64 207.3 296.06 203.9 304.41 200.3 312.77 196.82 321.14 193.48 329.42 189.93 337.72 186.52 346.05 183.25 354.31 179.79 362.64 176.49 371.03 173.39 379.38 170.14 387.84 167.12 396.4 164.37 404.95 161.55 413.64 159.06 422.44 156.95" stroke-dasharray="9 1" transform="rotate(16.16, 400, 400)" opacity="0.61"></path><path d="M421.75 167.92C430.14 165.87 438.35 164.29 446.37 163.19 454.36 162.2 462.13 161.73 469.61 161.78 477.04 162 484.13 162.76 490.83 164.07 497.4 165.56 503.51 167.61 509.11 170.18 516.93 174.59 529.21 186.16 533.62 193.21 536.19 198.21 538.21 203.6 539.74 209.34 541.33 215.21 542.61 221.41 543.73 227.88 545.25 234.45 546.89 241.27 548.84 248.3 551.57 255.39 554.9 262.68 558.95 270.13 564.08 277.61 570.08 285.23 576.96 292.97 584.86 300.72 593.48 308.59 602.65 316.52 612.3 324.47 622 332.5 631.4 340.57 640.35 348.64 648.32 356.77 654.9 364.92 660.12 373.07 663.41 381.25 664.56 389.42 663.9 397.6 661.04 405.78 656.09 413.92 649.76 422.06 642.09 429.96 633.53 437.62 624.81 445.27 616.05 452.65 607.67 459.75 600.24 466.83 593.74 473.62 588.36 480.08 584.46 486.51 581.75 492.62 580.15 498.37 580.14 506.75 584.2 521.63 586.81 528.09 589.35 539.33 582.61 553.08 576.21 556.8 571.05 559.36 565.06 561.75 558.38 564.02 551.27 566.54 543.62 569.01 535.56 571.45 527.26 574.23 518.7 577.06 509.98 579.96 501.15 583.25 492.26 586.65 483.39 590.15 474.5 594.07 465.66 598.08 456.94 602.16 448.23 606.6 439.65 611.05 431.22 615.46 422.81 620.08 414.54 624.55 406.44 628.77 398.35 633.03 390.59 636.8 383.17 640.02 375.73 643.08 368.59 645.48 361.75 647.17 354.86 648.56 348.24 649.19 341.86 649.04 335.4 648.5 329.13 647.18 323.05 645.1 316.83 642.63 310.74 639.42 304.74 635.53 298.55 631.29 292.41 626.43 286.29 621.02 279.92 615.33 273.54 609.16 267.12 602.57 260.46 595.8 253.77 588.68 247.06 581.29 240.16 573.8 233.29 566.08 226.52 558.2 219.68 550.28 213.04 542.24 206.69 534.11 200.46 525.99 194.66 517.82 189.37 509.62 184.41 501.45 180.1 493.26 176.5 485.08 173.35 476.94 170.97 468.8 169.39 460.69 168.24 452.61 167.84 444.54 168.13 436.51 168.67 428.5 169.74 420.52 171.27 412.58 172.73 404.65 174.41 396.76 176.24 388.92 177.67 381.08 179.04 373.47 180.31 366.1 181.04 358.73 181.67 351.6 182.21 344.71 182.32 337.82 182.47 331.18 182.72 324.8 182.77 318.4 183.12 312.27 183.83 306.4 185.27 297.7 191.4 281.6 196.31 274.19 200.19 269.3 204.74 264.65 209.9 260.25 215.42 255.79 221.5 251.55 228.05 247.54 234.87 243.43 242.08 239.52 249.6 235.8 257.26 231.95 265.15 228.27 273.19 224.76 281.28 221.08 289.47 217.54 297.72 214.15 305.95 210.57 314.21 207.11 322.48 203.79 330.71 200.28 338.95 196.9 347.19 193.67 355.4 190.27 363.63 187.03 371.88 183.98 380.11 180.8 388.38 177.85 396.69 175.17 405 172.42 413.35 169.99 421.74 167.92" stroke-dasharray="1 9" transform="rotate(20.200000000000003, 400, 400)" opacity="0.98"></path><path d="M418.79 178.89C426.73 176.89 434.42 175.33 441.85 174.23 449.26 173.23 456.37 172.71 463.15 172.69 469.87 172.81 476.22 173.45 482.14 174.59 490.64 176.82 504.96 184.07 510.68 189.02 515.67 194.68 523.11 208.32 525.85 216.17 527.75 221.65 529.51 227.43 531.27 233.5 533.5 239.66 535.96 246.07 538.8 252.7 542.41 259.4 546.61 266.28 551.49 273.33 557.31 280.43 563.87 287.66 571.15 295.02 579.22 302.39 587.82 309.88 596.76 317.44 605.98 325.01 615.08 332.66 623.74 340.35 631.9 348.05 639.04 355.79 644.84 363.55 649.37 371.32 652.12 379.1 652.93 386.86 652.12 394.64 649.34 402.39 644.67 410.1 638.77 417.81 631.63 425.28 623.65 432.51 615.47 439.72 607.17 446.68 599.12 453.36 591.82 460.02 585.28 466.39 579.65 472.45 573.64 481.36 568.42 497.5 568.53 504.71 572.16 517.53 575.29 533.61 573.79 537.99 570.75 542.25 559.63 550.03 551.79 553.72 545.93 556.38 539.48 559 532.56 561.6 525.38 564.51 517.84 567.45 510.06 570.45 502.13 573.8 494.04 577.23 485.88 580.74 477.66 584.6 469.42 588.53 461.22 592.5 453 596.78 444.85 601.04 436.79 605.23 428.74 609.61 420.79 613.83 412.96 617.8 405.13 621.81 397.6 625.35 390.35 628.39 383.07 631.29 376.06 633.57 369.3 635.22 362.49 636.61 355.9 637.29 349.5 637.27 343.02 636.92 336.69 635.84 330.49 634.06 324.16 631.93 317.91 629.13 311.73 625.68 305.37 621.92 299.03 617.57 292.7 612.69 286.17 607.55 279.61 601.94 273.04 595.92 266.28 589.71 259.52 583.16 252.78 576.31 245.93 569.35 239.16 562.16 232.53 554.78 225.91 547.35 219.55 539.77 213.51 532.09 207.65 524.39 202.25 516.62 197.38 508.81 192.87 501.01 188.98 493.18 185.8 485.34 183.06 477.53 181.05 469.72 179.79 461.93 178.92 454.15 178.74 446.4 179.21 438.68 179.88 430.98 181.05 423.31 182.63 415.68 184.12 408.07 185.83 400.49 187.67 392.98 189.12 385.46 190.51 378.18 191.8 371.14 192.59 364.09 193.27 357.28 193.85 350.71 194 344.13 194.17 337.79 194.41 331.7 194.54 322.67 196.3 305.82 198.34 298 201.27 290.38 210.66 276.26 217.13 269.74 221.99 265.4 227.4 261.26 233.3 257.33 239.48 253.29 246.08 249.44 253.02 245.77 260.15 241.97 267.55 238.32 275.14 234.83 282.84 231.18 290.68 227.66 298.61 224.29 306.57 220.73 314.58 217.31 322.63 214.02 330.66 210.55 338.72 207.21 346.77 204.03 354.8 200.69 362.84 197.52 370.86 194.54 378.88 191.44 386.89 188.56 394.88 185.95 402.87 183.28 410.85 180.91 418.78 178.89" stroke-dasharray="10 5" transform="rotate(24.24, 400, 400)" opacity="0.54"></path><path d="M413.89 189.86C421.34 187.91 428.51 186.39 435.37 185.29 442.21 184.27 448.72 183.72 454.86 183.63 463.81 183.92 479.54 187.13 486.22 190.04 492.32 193.66 502.17 203.33 506.06 209.3 509.74 215.87 516.54 230.89 520.18 239.23 523.15 244.97 526.42 250.97 530.1 257.18 534.49 263.45 539.44 269.92 544.99 276.56 551.32 283.24 558.26 290.07 565.75 297.01 573.83 303.99 582.25 311.07 590.83 318.22 599.52 325.4 607.96 332.65 615.87 339.94 623.22 347.24 629.56 354.58 634.62 361.93 638.51 369.29 640.77 376.66 641.26 384.01 640.33 391.36 637.64 398.69 633.24 405.97 627.76 413.25 621.14 420.3 613.73 427.1 606.09 433.9 598.26 440.45 590.57 446.72 583.47 452.98 576.95 458.97 571.18 464.67 564.57 473.04 557.35 488.25 556.29 495.07 558.1 507.33 560.59 523.01 559.72 527.41 557.71 531.75 549.38 539.82 543.16 543.71 538.44 546.49 533.13 549.24 527.3 551.97 521.22 554.98 514.73 558.01 507.92 561.08 500.94 564.46 493.73 567.9 486.36 571.38 478.91 575.17 471.35 579.01 463.75 582.85 456.12 586.95 448.48 591.01 440.86 594.99 433.25 599.13 425.66 603.1 418.14 606.83 410.61 610.59 403.31 613.91 396.23 616.76 389.14 619.5 382.25 621.68 375.55 623.27 368.81 624.64 362.23 625.37 355.8 625.45 349.28 625.25 342.88 624.39 336.57 622.89 330.14 621.08 323.76 618.64 317.42 615.61 310.93 612.3 304.45 608.43 297.97 604.05 291.34 599.44 284.7 594.37 278.07 588.9 271.31 583.25 264.58 577.26 257.92 570.96 251.22 564.55 244.64 557.89 238.26 551.03 231.96 544.1 225.94 537.01 220.29 529.8 214.87 522.57 209.92 515.24 205.51 507.85 201.46 500.45 198.03 493.02 195.27 485.56 192.93 478.12 191.27 470.66 190.32 463.22 189.72 455.79 189.75 448.37 190.38 440.99 191.17 433.61 192.41 426.27 194.03 418.97 195.54 411.68 197.26 404.44 199.09 397.25 200.56 390.07 201.97 383.11 203.29 376.39 204.13 369.65 204.86 363.15 205.49 356.88 205.81 347.57 206.25 330.1 206.78 321.94 207.58 313.97 211.54 299.13 214.96 292.23 219.36 285.47 231.44 272.86 239.01 266.98 244.51 263.02 250.43 259.22 256.72 255.59 263.22 251.83 270.02 248.22 277.06 244.75 284.23 241.14 291.58 237.65 299.06 234.3 306.61 230.79 314.25 227.4 321.93 224.15 329.64 220.74 337.38 217.46 345.11 214.33 352.85 211.07 360.59 207.97 368.28 205.06 375.99 202.05 383.66 199.26 391.26 196.72 398.88 194.13 406.42 191.83 413.88 189.87" stroke-dasharray="6 7" transform="rotate(28.28, 400, 400)" opacity="0.90"></path><path d="M407.54 200.84C414.5 198.94 421.15 197.45 427.48 196.36 436.78 195.05 453.54 194.76 460.93 195.82 467.86 197.52 479.69 203.34 484.64 207.42 489.31 212.11 497.57 223.56 501.51 230.24 504.43 234.91 507.43 239.87 510.62 245.1 514.3 250.42 518.31 255.99 522.72 261.76 527.76 267.61 533.29 273.65 539.33 279.85 545.99 286.1 553.12 292.5 560.64 299.02 568.57 305.57 576.68 312.23 584.79 318.96 592.87 325.72 600.61 332.55 607.75 339.42 614.3 346.31 619.87 353.23 624.24 360.16 627.53 367.1 629.34 374.05 629.56 380.98 628.54 387.91 625.94 394.81 621.82 401.67 616.73 408.52 610.62 415.15 603.76 421.55 596.65 427.94 589.31 434.09 582.01 439.98 575.16 445.87 568.75 451.5 562.91 456.86 555.87 464.74 546.93 479.12 544.79 485.61 544.66 497.4 545.81 512.78 545.22 517.21 543.85 521.62 537.62 529.95 532.73 534.01 526.83 538.32 512.04 547.19 503.42 551.85 497.39 555.23 491.07 558.64 484.51 562.08 477.87 565.78 471.04 569.5 464.09 573.2 457.11 577.12 450.04 580.98 442.91 584.74 435.78 588.64 428.61 592.37 421.43 595.86 414.24 599.37 407.21 602.48 400.33 605.15 393.44 607.73 386.69 609.79 380.07 611.32 373.42 612.66 366.87 613.42 360.43 613.59 353.91 613.52 347.47 612.85 341.08 611.59 334.6 610.07 328.14 607.97 321.71 605.32 315.17 602.42 308.63 599.01 302.1 595.11 295.47 591 288.86 586.45 282.27 581.51 275.63 576.41 269.05 570.96 262.59 565.21 256.14 559.35 249.86 553.23 243.82 546.89 237.92 540.49 232.33 533.91 227.13 527.19 222.19 520.44 217.73 513.58 213.8 506.63 210.23 499.68 207.26 492.67 204.93 485.62 202.98 478.57 201.67 471.51 201.01 464.44 200.65 457.38 200.87 450.33 201.63 443.3 202.52 436.28 203.82 429.28 205.46 422.32 206.99 415.37 208.7 408.46 210.51 401.61 211.99 394.76 213.42 388.13 214.75 381.71 215.64 375.29 216.43 369.09 217.12 363.1 217.53 354.22 218.04 337.52 218.48 329.7 219.07 322.06 222.18 307.76 224.96 301.09 228.57 294.52 238.79 282.22 245.33 276.44 250.11 272.55 255.33 268.81 260.91 265.22 266.72 261.52 272.85 257.95 279.24 254.51 285.78 250.95 292.54 247.5 299.46 244.18 306.47 240.73 313.6 237.39 320.8 234.18 328.06 230.84 335.35 227.63 342.66 224.57 349.99 221.39 357.32 218.37 364.6 215.55 371.9 212.63 379.15 209.93 386.31 207.47 393.49 204.97 400.57 202.74 407.53 200.84" stroke-dasharray="9 2" transform="rotate(32.32, 400, 400)" opacity="0.66"></path><path d="M400.41 211.81C406.87 209.98 413.03 208.52 418.88 207.45 427.47 206.13 442.95 205.66 449.82 206.52 456.33 207.99 467.72 213.15 472.72 216.8 477.61 221.03 486.91 231.43 491.64 237.52 495.13 241.79 498.77 246.34 502.62 251.15 506.93 256.05 511.57 261.18 516.57 266.52 522.1 271.93 528.04 277.53 534.37 283.29 541.19 289.1 548.33 295.05 555.71 301.13 563.34 307.24 571.02 313.46 578.57 319.76 586 326.08 593 332.48 599.37 338.92 605.15 345.37 609.99 351.86 613.7 358.36 616.44 364.88 617.85 371.4 617.84 377.9 616.74 384.4 614.24 390.88 610.39 397.31 605.7 403.74 600.07 409.96 593.74 415.96 587.17 421.96 580.32 427.73 573.44 433.27 566.89 438.8 560.63 444.09 554.82 449.14 547.49 456.57 537.16 470.2 534.05 476.4 531.95 487.79 531.24 502.92 530.61 507.39 527.12 516.14 516.11 529.03 510.38 533.38 506.22 536.5 501.61 539.62 496.61 542.74 491.47 546.1 485.99 549.46 480.22 552.83 474.38 556.42 468.29 560.01 462.01 563.55 455.7 567.28 449.22 570.94 442.62 574.48 436.01 578.14 429.29 581.63 422.49 584.88 415.69 588.16 408.97 591.06 402.33 593.55 395.68 595.96 389.11 597.91 382.62 599.37 376.1 600.67 369.64 601.44 363.23 601.69 356.78 601.73 350.36 601.22 343.97 600.18 337.52 598.92 331.08 597.12 324.65 594.83 318.16 592.31 311.67 589.31 305.21 585.86 298.7 582.23 292.22 578.17 285.82 573.75 279.4 569.17 273.09 564.25 266.93 559.04 260.84 553.71 254.96 548.13 249.35 542.33 243.91 536.45 238.81 530.39 234.12 524.18 229.69 517.93 225.74 511.55 222.32 505.07 219.24 498.58 216.72 492.02 214.81 485.4 213.23 478.79 212.24 472.13 211.85 465.47 211.72 458.8 212.1 452.13 212.97 445.48 213.95 438.83 215.28 432.19 216.92 425.59 218.45 419 220.15 412.43 221.94 405.92 223.41 399.41 224.84 393.1 226.19 386.99 227.55 377.93 229.25 360.8 229.76 352.73 229.9 344.84 230.75 330 231.77 323.04 233.19 316.21 238.35 303.38 242.19 297.35 246.83 291.37 258.7 280.05 265.82 274.67 270.9 271.02 276.31 267.5 282 264.11 287.85 260.6 293.94 257.21 300.2 253.94 306.59 250.54 313.11 247.27 319.73 244.12 326.42 240.86 333.18 237.72 339.96 234.74 346.78 231.66 353.6 228.73 360.39 226 367.21 223.18 373.97 220.57 380.65 218.2 387.35 215.8 393.94 213.65 400.4 211.81" stroke-dasharray="3 7" transform="rotate(36.36, 400, 400)" opacity="0.52"></path><path d="M393.24 222.78C402.07 220.31 418.33 217.23 425.73 216.66 435.39 216.41 443.92 217.73 451.4 220.53 459.06 223.78 466.03 228.51 472.61 234.55 480.01 241.02 487.72 248.72 496.16 257.41 506.2 266.44 517.47 276.34 529.96 286.92 543.81 297.69 558.18 309.02 572.12 320.7 585.26 332.48 595.99 344.53 603 356.65 605.24 362.73 606.3 368.82 606.09 374.89 604.94 380.96 602.55 387.02 598.97 393.03 594.65 399.04 589.49 404.86 583.68 410.48 577.62 416.1 571.27 421.51 564.83 426.71 552.78 437.09 541.91 446.62 532.92 455.24 526.77 463.89 522.5 471.69 519.63 478.65 518.64 485.76 517.76 492.19 516.29 498 515.08 504.2 512.35 510.01 507.9 515.51 502.95 521.68 496.17 527.76 487.76 533.75 478.92 540.56 468.74 547.33 457.52 553.91 451.85 557.44 445.98 560.89 439.92 564.21 433.85 567.64 427.61 570.88 421.23 573.91 414.84 576.96 408.47 579.65 402.12 581.96 395.77 584.21 389.43 586.04 383.13 587.42 370.48 589.78 357.86 590.18 345.32 588.67 332.65 586.39 319.99 582.21 307.48 576.32 294.94 569.76 282.71 561.7 271.13 552.43 259.97 542.73 249.9 532.06 241.35 520.71 233.84 509.18 228.27 497.13 224.91 484.82 222.73 472.47 222.61 459.94 224.41 447.41 225.44 441.14 226.79 434.89 228.43 428.65 229.94 422.43 231.6 416.22 233.36 410.05 234.83 403.88 236.26 397.9 237.62 392.1 238.6 386.3 239.49 380.69 240.31 375.26 240.85 364.37 241.4 354.19 242.22 344.76 242.49 335.22 243.78 326.35 246.34 318.16 249.31 309.76 253.97 301.94 260.22 294.72 267.27 287.16 275.83 280.09 285.61 273.52 296.01 266.54 307.33 259.99 319.19 253.96 331.37 247.51 343.85 241.61 356.3 236.41 362.57 233.7 368.81 231.2 374.98 228.92 381.16 226.61 387.25 224.56 393.23 222.78" stroke-dasharray="3 5" transform="rotate(40.400000000000006, 400, 400)" opacity="0.60"></path><path d="M386.77 233.75C397.8 230.4 407.92 228.4 417.1 227.75 426.29 227.38 434.64 228.45 442.24 230.89 450.11 233.72 457.59 237.91 464.96 243.32 473.14 249.11 481.78 256.04 491.13 263.92 501.79 272.1 513.44 281.13 525.92 290.81 539.27 300.68 552.72 311.1 565.39 321.87 577.06 332.74 586.33 343.9 592.15 355.14 594.97 366.43 593.46 377.76 587.54 388.96 579.12 400.17 568.2 410.68 556.18 420.43 544.77 430.17 534.11 439.16 524.87 447.36 517.97 455.59 512.67 463.1 508.68 469.88 506.49 476.83 504.65 483.2 502.57 489.04 501.03 495.25 498.41 501.12 494.46 506.71 490.28 512.88 484.53 518.94 477.3 524.87 469.75 531.49 460.87 538.01 450.86 544.26 440.72 551.05 429.63 557.38 417.75 562.94 405.88 568.57 393.83 572.79 381.76 575.48 369.67 577.75 357.5 578.27 345.37 577.06 333.2 575.21 321.07 571.63 309.16 566.5 297.37 560.78 286 553.65 275.37 545.36 265.29 536.69 256.33 527.06 248.9 516.73 242.47 506.21 237.85 495.15 235.28 483.77 233.7 472.34 233.96 460.67 235.92 448.96 238.05 437.24 241.13 425.5 244.79 413.87 247.36 402.25 249.76 391.26 251.86 380.96 252.6 370.62 253.31 360.92 254.2 351.89 254.46 342.75 255.54 334.2 257.65 326.27 259.97 318.15 263.74 310.54 268.92 303.47 274.71 296.11 281.92 289.18 290.31 282.75 299.24 275.94 309.13 269.56 319.63 263.7 330.46 257.48 341.67 251.79 352.97 246.79 364.38 241.57 375.73 237.15 386.76 233.76" stroke-dasharray="9 7" transform="rotate(44.44, 400, 400)" opacity="0.26"></path><path d="M381.67 244.73C391.83 241.52 401.33 239.58 410.14 238.87 418.99 238.4 427.28 239.25 435.1 241.35 443.22 243.78 451.22 247.47 459.29 252.27 468.1 257.41 477.41 263.6 487.34 270.7 498.28 278.05 509.94 286.22 522.07 295.01 534.66 303.98 547 313.49 558.32 323.36 568.53 333.32 576.42 343.57 581.16 353.95 583.29 364.36 581.63 374.84 576.12 385.23 568.46 395.63 558.54 405.43 547.48 414.56 536.77 423.68 526.47 432.16 517.19 439.95 509.78 447.79 503.66 455.02 498.7 461.63 495.4 468.4 492.56 474.69 489.76 480.53 487.64 486.7 484.83 492.58 481.04 498.19 477.25 504.3 472.17 510.29 465.81 516.1 459.25 522.48 451.44 528.7 442.49 534.62 433.45 540.96 423.39 546.84 412.44 551.96 401.49 557.15 390.23 561.04 378.84 563.55 367.46 565.72 355.94 566.32 344.45 565.37 333 563.89 321.63 560.86 310.56 556.4 299.72 551.45 289.38 545.2 279.87 537.85 270.94 530.16 263.16 521.53 256.86 512.2 251.47 502.7 247.77 492.62 245.9 482.18 244.86 471.69 245.45 460.91 247.53 450.03 249.68 439.15 252.68 428.18 256.21 417.28 258.76 406.37 261.19 396.01 263.37 386.27 264.3 376.48 265.19 367.26 266.21 358.62 266.53 349.89 267.5 341.68 269.3 334.02 271.13 326.19 274.18 318.81 278.45 311.93 283.15 304.78 289.14 298.05 296.23 291.77 303.77 285.18 312.26 279.01 321.43 273.33 330.88 267.36 340.8 261.91 350.95 257.13 361.19 252.16 371.5 247.97 381.67 244.73" stroke-dasharray="4 5" transform="rotate(48.48, 400, 400)" opacity="0.59"></path><path d="M378.47 255.7C387.83 252.66 396.78 250.78 405.29 250.03 413.86 249.48 422.13 250.13 430.18 251.92 438.52 253.99 446.92 257.2 455.51 261.43 464.71 265.95 474.39 271.44 484.56 277.77 495.43 284.33 506.76 291.66 518.23 299.59 529.84 307.67 540.95 316.27 550.87 325.25 559.67 334.3 566.27 343.66 570.03 353.17 571.56 362.71 569.79 372.35 564.69 381.95 557.77 391.56 548.81 400.65 538.72 409.18 528.78 417.71 518.97 425.69 509.82 433.09 502.12 440.55 495.43 447.49 489.7 453.91 485.42 460.5 481.65 466.67 478.08 472.46 475.26 478.54 472.04 484.37 468.15 489.94 464.42 495.93 459.71 501.78 453.92 507.41 448.06 513.51 441.09 519.41 433.05 524.97 424.95 530.87 415.85 536.29 405.84 540.99 395.83 545.74 385.44 549.31 374.87 551.63 364.34 553.68 353.65 554.33 343.01 553.6 332.47 552.44 322.07 549.88 312.03 546.05 302.29 541.8 293.11 536.35 284.81 529.89 277.08 523.12 270.49 515.46 265.29 507.1 260.9 498.58 258.03 489.48 256.8 479.99 256.22 470.43 257.07 460.56 259.21 450.53 261.35 440.49 264.24 430.32 267.64 420.15 270.14 409.98 272.58 400.28 274.82 391.09 275.95 381.88 277.04 373.14 278.2 364.92 278.66 356.61 279.61 348.75 281.23 341.38 282.73 333.86 285.23 326.74 288.77 320.07 292.56 313.18 297.49 306.67 303.44 300.6 309.72 294.26 316.92 288.32 324.84 282.86 332.97 277.17 341.66 271.98 350.68 267.43 359.79 262.74 369.1 258.77 378.47 255.7" stroke-dasharray="11 0" transform="rotate(52.52, 400, 400)" opacity="0.61"></path><path d="M377.5 266.67C386.13 263.8 394.57 262 402.8 261.22 411.11 260.61 419.33 261.09 427.5 262.59 435.94 264.33 444.56 267.09 453.41 270.79 462.72 274.72 472.43 279.55 482.48 285.16 492.96 290.96 503.65 297.47 514.23 304.55 524.7 311.77 534.49 319.5 543.02 327.59 550.46 335.76 555.88 344.24 558.76 352.89 559.78 361.57 557.96 370.39 553.27 379.22 547.06 388.05 539.01 396.46 529.89 404.4 520.77 412.34 511.54 419.84 502.71 426.85 494.95 433.91 487.91 440.56 481.64 446.77 476.58 453.13 472.01 459.16 467.7 464.84 464.15 470.78 460.41 476.49 456.27 481.95 452.38 487.76 447.77 493.4 442.33 498.81 436.91 504.59 430.55 510.14 423.26 515.31 415.94 520.76 407.71 525.73 398.63 530.02 389.54 534.35 380.09 537.6 370.45 539.72 360.87 541.64 351.17 542.31 341.55 541.76 332.07 540.87 322.78 538.74 313.91 535.46 305.37 531.84 297.43 527.14 290.37 521.49 283.85 515.59 278.41 508.84 274.26 501.42 270.78 493.85 268.65 485.71 267.97 477.15 267.78 468.52 268.82 459.55 270.98 450.38 273.07 441.19 275.83 431.83 279.06 422.41 281.51 412.99 283.93 403.95 286.22 395.35 287.53 386.72 288.8 378.49 290.13 370.7 290.77 362.83 291.8 355.36 293.33 348.31 294.65 341.13 296.77 334.31 299.76 327.9 302.85 321.3 306.93 315.05 311.91 309.21 317.11 303.16 323.17 297.49 329.96 292.29 336.9 286.9 344.45 282 352.44 277.7 360.48 273.3 368.88 269.57 377.5 266.67" stroke-dasharray="5 8" transform="rotate(56.56, 400, 400)" opacity="0.97"></path><path d="M378.87 277.65C386.8 274.96 394.76 273.24 402.68 272.46 410.67 271.8 418.74 272.12 426.89 273.37 435.24 274.8 443.84 277.16 452.65 280.36 461.78 283.75 471.2 287.96 480.79 292.88 490.6 297.95 500.41 303.68 509.89 309.96 519.12 316.35 527.56 323.23 534.74 330.47 540.9 337.77 545.24 345.39 547.37 353.21 547.95 361.04 546.12 369.05 541.84 377.12 536.31 385.18 529.16 392.92 520.98 400.28 512.71 407.64 504.17 414.64 495.79 421.25 488.18 427.92 481.03 434.24 474.45 440.21 468.84 446.31 463.64 452.12 458.73 457.65 454.51 463.38 450.24 468.91 445.76 474.2 441.59 479.77 436.92 485.15 431.66 490.28 426.47 495.7 420.55 500.87 413.88 505.65 407.19 510.64 399.74 515.17 391.56 519.05 383.37 522.96 374.88 525.9 366.26 527.83 357.7 529.6 349.08 530.27 340.59 529.87 332.25 529.2 324.17 527.44 316.55 524.65 309.23 521.6 302.55 517.56 296.72 512.67 291.36 507.57 286.99 501.68 283.79 495.15 281.12 488.49 279.65 481.27 279.41 473.62 279.52 465.91 280.69 457.84 282.81 449.52 284.83 441.19 287.44 432.65 290.49 423.99 292.85 415.34 295.24 406.98 297.56 398.98 299.02 390.95 300.47 383.25 301.97 375.92 302.83 368.54 303.98 361.48 305.53 354.78 306.78 347.98 308.69 341.5 311.29 335.38 313.88 329.12 317.3 323.18 321.52 317.62 325.84 311.89 330.96 306.53 336.78 301.62 342.69 296.56 349.23 291.96 356.3 287.94 363.39 283.83 370.94 280.36 378.87 277.65" stroke-dasharray="10 7" transform="rotate(60.599999999999994, 400, 400)" opacity="0.75"></path><path d="M382.44 288.62C389.71 286.12 397.15 284.5 404.69 283.72 412.28 283.04 420.06 283.24 427.98 284.26 436.04 285.41 444.35 287.4 452.82 290.14 461.48 293.03 470.31 296.66 479.17 300.93 488.07 305.32 496.8 310.32 505.08 315.83 513.02 321.43 520.12 327.49 526.01 333.91 531 340.37 534.38 347.16 535.86 354.17 536.09 361.19 534.28 368.4 530.41 375.72 525.53 383.04 519.23 390.11 511.98 396.88 504.58 403.66 496.8 410.16 489 416.35 481.72 422.59 474.69 428.56 468.04 434.23 462.12 440.02 456.52 445.57 451.19 450.87 446.44 456.35 441.72 461.62 436.92 466.67 432.44 471.93 427.65 477.01 422.46 481.81 417.38 486.84 411.77 491.6 405.61 495.97 399.45 500.51 392.69 504.59 385.36 508.07 378.03 511.58 370.51 514.21 362.93 515.95 355.41 517.57 347.91 518.22 340.6 517.94 333.44 517.45 326.58 516 320.21 513.65 314.11 511.09 308.63 507.67 303.96 503.47 299.66 499.09 296.27 494.01 293.9 488.32 291.94 482.52 290.99 476.17 291.1 469.41 291.44 462.59 292.67 455.39 294.72 447.92 296.63 440.45 299.06 432.72 301.91 424.85 304.17 416.97 306.51 409.31 308.82 401.93 310.41 394.53 312.02 387.39 313.68 380.56 314.75 373.68 316.07 367.07 317.69 360.78 318.99 354.4 320.79 348.3 323.16 342.53 325.44 336.64 328.4 331.05 332.04 325.82 335.69 320.46 340.06 315.44 345.09 310.85 350.16 306.14 355.85 301.87 362.1 298.14 368.37 294.35 375.16 291.13 382.44 288.62" stroke-dasharray="8 4" transform="rotate(64.64, 400, 400)" opacity="0.17"></path><path d="M387.82 299.59C394.45 297.3 401.33 295.79 408.38 295.03 415.47 294.34 422.79 294.43 430.26 295.24 437.83 296.17 445.59 297.82 453.45 300.14 461.39 302.57 469.39 305.66 477.28 309.33 485.11 313.09 492.65 317.4 499.67 322.18 506.3 327.03 512.12 332.31 516.82 337.94 520.76 343.61 523.31 349.59 524.24 355.8 524.19 362.03 522.45 368.47 518.98 375.05 514.72 381.63 509.24 388.03 502.89 394.21 496.37 400.4 489.4 406.39 482.29 412.13 475.5 417.91 468.78 423.48 462.29 428.82 456.32 434.24 450.56 439.48 445.01 444.48 439.92 449.63 434.9 454.6 429.89 459.34 425.16 464.25 420.25 468.96 415.13 473.4 410.12 478.01 404.76 482.34 399.04 486.29 393.33 490.36 387.21 494.01 380.69 497.1 374.17 500.21 367.58 502.54 361.04 504.09 354.54 505.55 348.15 506.17 342.01 505.96 333.15 505.03 317.99 498.91 312.17 493.89 307.54 488.01 302.95 473.18 303.04 464.5 303.53 458.54 304.76 452.2 306.69 445.57 308.46 438.93 310.7 432.03 313.34 424.94 315.48 417.85 317.73 410.91 320.01 404.18 321.68 397.44 323.42 390.89 325.22 384.59 326.5 378.26 327.99 372.15 329.72 366.3 331.12 360.39 332.93 354.72 335.19 349.34 337.29 343.88 339.95 338.68 343.19 333.82 346.38 328.86 350.18 324.22 354.59 319.97 358.98 315.65 363.98 311.73 369.53 308.31 375.08 304.84 381.18 301.9 387.82 299.59" stroke-dasharray="8 1" transform="rotate(68.68, 400, 400)" opacity="0.50"></path><path d="M394.47 310.56C406.45 306.44 419.56 305.12 433.15 306.33 446.92 307.85 461.17 311.91 474.83 318.06 487.97 324.49 499.35 332.85 507.18 342.58 512.56 352.42 512.95 363.44 507.56 375.14 499.7 386.84 488.34 398.11 475.59 408.58 463.51 419.2 451.44 429.26 440.08 438.46 430.04 448.08 420.04 457.09 409.91 465.02 400.19 473.45 389.53 480.75 378.02 486.13 366.5 491.58 355.26 494.15 345.08 493.97 335.26 493.38 327.07 489.91 321.36 484 316.44 477.68 314.3 469.13 315.2 458.94 316.31 448.61 319.63 436.87 324.76 424.28 328.28 411.68 332.31 399.44 336.54 388.02 339.05 376.5 342.48 365.63 347.11 355.82 351.06 345.78 356.93 336.66 364.81 329.01 372.55 321.12 382.47 314.74 394.47 310.56" stroke-dasharray="2 4" transform="rotate(72.72, 400, 400)" opacity="1.00"></path><path d="M401.69 321.54C412.36 317.85 424.01 316.6 436 317.53 448.02 318.66 460.21 321.99 471.56 327.14 482.29 332.48 491.26 339.52 497.09 347.84 501.03 356.22 500.91 365.74 496.14 375.99 489.51 386.23 479.88 396.26 468.85 405.69 458.08 415.23 446.95 424.37 436.21 432.76 426.33 441.45 416.52 449.58 406.83 456.68 397.48 464.13 387.69 470.51 377.63 475.16 367.56 479.86 358.16 482.08 349.98 481.96 342.03 481.57 335.68 478.74 331.51 473.81 327.82 468.6 326.45 461.43 327.56 452.76 328.66 443.98 331.62 433.87 336.19 422.88 339.48 411.88 343.39 401.06 347.61 390.85 350.47 380.59 354.12 370.83 358.72 361.99 362.66 352.99 368.14 344.81 375.25 337.95 382.19 330.93 391.01 325.26 401.69 321.54" stroke-dasharray="3 1" transform="rotate(76.76, 400, 400)" opacity="0.86"></path><path d="M408.73 332.51C418.03 329.28 428.06 328.13 438.19 328.81 448.28 329.64 458.26 332.31 467.25 336.53 475.68 340.88 482.45 346.71 486.57 353.68 489.32 360.69 488.84 368.75 484.71 377.56 479.24 386.37 471.28 395.1 462 403.41 452.73 411.8 442.88 419.89 433.15 427.35 423.93 435.01 414.71 442.15 405.76 448.36 397.04 454.79 388.22 460.25 379.56 464.18 370.89 468.15 363.14 470.03 356.68 469.95 347.92 468.56 339.35 456.2 340.07 446.01 341.08 438.7 343.64 430.18 347.61 420.78 350.62 411.38 354.32 402.02 358.41 393.12 361.47 384.18 365.25 375.63 369.78 367.85 373.75 359.97 378.92 352.81 385.36 346.8 391.63 340.69 399.43 335.77 408.73 332.51" stroke-dasharray="0 2" transform="rotate(80.80000000000001, 400, 400)" opacity="0.14"></path><path d="M414.87 343.48C422.73 340.74 431 339.71 439.16 340.2 447.24 340.77 455 342.86 461.77 346.24 468.07 349.69 472.93 354.39 475.65 360.08 477.44 365.8 476.75 372.46 473.29 379.82 468.91 387.18 462.53 394.57 454.99 401.67 447.35 408.82 439.03 415.76 430.63 422.18 422.49 428.72 414.29 434.8 406.37 440.05 398.59 445.44 390.9 449.98 383.61 453.21 365.69 457.06 351.94 447.02 352.7 438.77 353.55 432.84 355.68 425.85 359.04 418.05 361.7 410.25 365.08 402.4 368.9 394.87 372 387.33 375.75 380.06 380.1 373.43 384.01 366.75 388.85 360.67 394.62 355.56 400.23 350.41 407 346.25 414.87 343.48" stroke-dasharray="9 3" transform="rotate(84.84, 400, 400)" opacity="0.57"></path><path d="M419.46 354.45C432.18 350.02 445.19 351.03 455.02 356.22 463.57 361.55 466.78 370.85 461.86 382.69 454.68 394.53 442.03 406.75 428.37 417.21 415.06 427.95 401.2 437.17 389.36 442.24 373.56 447.15 364.01 431.98 370.46 414.77 374.45 402.35 381.24 389.54 389.48 378.77 396.58 367.91 406.74 358.95 419.46 354.45" stroke-dasharray="3 4" transform="rotate(88.88, 400, 400)" opacity="0.48"></path><path d="M422.04 365.43C431.63 362.03 440.69 362.68 447 366.46 452.58 370.3 454.29 377.16 450.44 386.09 445.34 395.01 436.21 404.36 426.06 412.39 415.94 420.56 405.24 427.51 396.21 431.26 384.26 434.89 377.12 423.81 381.89 411.04 385.17 401.78 390.92 392.09 397.83 383.89 404.1 375.66 412.44 368.86 422.04 365.43" stroke-dasharray="0 10" transform="rotate(92.92, 400, 400)" opacity="0.46"></path><path d="M422.33 376.4C435.13 371.81 443.7 377.93 439.01 389.91 432.17 401.88 415.71 415.38 403.46 420.29 391.2 425.27 387.16 419.26 393.31 406.98 397.53 394.69 409.52 381.06 422.33 376.4" stroke-dasharray="5 11" transform="rotate(96.96, 400, 400)" opacity="0.96"></path></g></svg>