<svg xmlns="http://www.w3.org/2000/svg" version="1.1" xmlns:xlink="http://www.w3.org/1999/xlink" xmlns:svgjs="http://svgjs.dev/svgjs" viewBox="0 0 800 800"><defs><linearGradient x1="50%" y1="0%" x2="50%" y2="100%" id="ssscribble-grad"><stop stop-color="hsl(206, 75%, 49%)" stop-opacity="1" offset="0%"></stop><stop stop-color="hsl(331, 90%, 56%)" stop-opacity="1" offset="100%"></stop></linearGradient></defs><g fill="none" stroke-width="1.5" stroke="url(#ssscribble-grad)" stroke-linecap="round"><path d="M991.95 179.56C832.2 212.42 693.85 241.38 639.39 269.18 688.35 300.61 807.07 337.78 935.21 386.81 1025.93 447.3 1037.61 526.38 973.24 624.11 853.81 726.72 717.07 832.84 597.34 924.63 508.89 982.07 464.45 993.9 455.42 950.47 476.48 867.92 508.52 761.33 536.99 666.43 568.89 625.86 585.5 656.3 584.74 758.72 582.21 901.17 564.17 1033.61 531.31 1100.57 498.45 1073.96 452.32 964.79 392.88 820.82 331.67 693.77 255.28 626.22 166.43 631.12 81.02 701.5 -5.13 802.23 -76.84 896.34 -118.45 964.93 -121.2 983.24 -75.81 953.27 0.84 883.72 98.61 789.79 183.83 690.13 213.98 587.67 172.84 498.8 58.03 426.95 -94.19 364.24 -231.61 315.35 -293.25 275.65 -251.48 239.49 -119.79 206.14 39.95 173.28 140.55 140.42 135.65 109.61 37.23 83.79 -166.91 56.07 -158.27 88.66 43 157.84 173.71 206.86 257.57 253.62 287.45 280.1 267 267.01 216.92 209.75 160.49 106.95 100.26 -21.36 59.94 -151.56 43.03 -246.04 38.34 -275.04 52.45 -226.21 78.12 -111.86 108.26 19.42 141.71 121.95 174.57 148.59 207.43 81.65 238.15 -44.12 269.98 -173.89 306.29 -263.65 351.95 -275.4 413.59 -210.76 487.44 -91.77 581.88 44.28 692.76 161.04 799.83 238.7 897.1 265.84 960.61 251.48 973.8 202.77 928.91 143.83 832.41 91.87 724.28 44.77 635.88 19.81 611.98 16.26 675.81 24.17 811.59 46.78 969.88 77.32 1080.99 111.49 1092.55 146.7 991.95 179.56Q991.95 179.56 991.95 179.56" opacity="0.31"></path><path d="M957.95 194.49C809.88 225 675.43 261.14 607.85 304.1 629.24 349.61 721.34 406.24 840.18 475.89 947.98 550.34 1000.59 637.21 986.83 730.84 914.26 816.08 803.57 890.25 683.99 938.06 569.96 950.28 483.07 920.61 426.92 849.87 394.18 714.77 410.64 618.54 413.75 753.73 413.56 888.15 399.13 1007.11 368.62 1066.57 338.1 1044.96 292.95 949.85 235.6 818.32 179.53 691.52 114.85 607.25 48.66 582.91 -6.51 619.86 -49.29 696.88 -67.32 785.56 -58.19 870.1 -15.12 922.6 58.92 935.92 138.5 913.99 213.01 860.1 253.81 788.04 235.8 701.88 155.82 616.26 25.66 539.18 -115.54 463.74 -225.01 400.63 -258.17 349.82 -202.37 300.95 -74.11 261.47 73.95 230.95 170.71 200.44 177.58 180.33 99.98 171.66 -30.16 164.91 -152.2 172.51 -220.25 195.07 -216.87 219.27 -141.73 254.64 -23.89 293.78 109.26 318.81 222.81 328.9 298.87 310.85 333.87 257.55 331.36 168.88 306.62 52.57 262.92 -67.88 221.24 -172.27 191.45 -231.59 163.91 -229.64 153.41 -162.75 158.89 -47.73 166.97 72.01 187.05 160.95 217.57 182.59 248.08 123.14 287.58 10.38 337.05 -112.26 389.11 -209.37 455.11 -244.65 535.54 -212.14 618.21 -123.66 710.13 -3.77 800.87 116.83 872.64 219.35 918.95 285.21 923.94 312.99 887.88 305.18 810.5 274.82 709.12 236.61 623.05 190.02 575.28 153.4 594.26 131.83 684.68 115.04 824.09 113.92 966.02 125.95 1055.4 140.54 1054.71 163.98 957.95 194.49Q957.95 194.49 957.95 194.49" opacity="0.53"></path><path d="M923.95 300.83C787.63 329 658.74 368.31 581.52 418.12 578.13 468.68 641.61 530.48 742.35 601.5 852.73 670.7 932.1 743.47 961.68 811.63 940.3 864.12 872.66 897.03 778.59 900.36 669.57 875.13 567.07 818.29 482.05 737.39 412.4 656.66 364.15 587.5 331.95 552.62 311.64 569.89 297.27 639.38 282.19 750.22 270.01 874.69 251.16 980.23 223 1032.57 194.83 1015.5 158.68 933.95 117.73 816.08 79.7 693.7 42.82 598.82 14.33 550.33 -2.27 554.52 -0.41 601.56 25.82 672.08 67.43 754.88 129.49 824.12 201.59 867.92 258.75 887.55 292.99 876.59 285.04 842.33 226.13 789.77 121.5 727.31 -9.51 663.89 -130.89 596 -210.4 534.72 -217.89 483.54 -151.54 432.34 -28.36 391.99 107.95 363.82 200.29 335.65 217.22 321 159.65 319.07 48.15 317.13 -70.72 327.17 -157.03 346.25 -191.36 360.86 -161.12 376.93 -80.68 386.09 32.22 376.95 150.01 347.47 251.37 290.94 329.52 210.23 375.38 107.6 394.34 -4.52 381.86 -140.52 326.9 -134.28 319.22 16.64 318.42 123.64 331.68 199.5 359.84 216.59 388.01 164.27 429.75 64.45 483.67 -49.16 537.57 -149.14 602.63 -202.6 674.48 -199.24 740.27 -143.72 802.71 -49.31 850.57 60.74 875.02 170.97 869.6 261.22 828.37 323.36 763.93 356.95 679.54 364.48 595.95 355.4 544.84 330.65 539.85 304.27 594.83 283.87 701.79 261.67 836.71 251.11 959.07 253.66 1027.51 256.98 1016.29 272.67 923.95 300.83Q923.95 300.83 923.95 300.83" opacity="0.22"></path><path d="M889.95 451.29C765.45 477.11 643.61 513.81 560.24 559.55 535.77 604.45 570.78 656.29 647.38 710.88 747.52 759.57 837.73 803.64 897.26 835.61 920.8 851.31 901.18 845.68 848.09 814.59 769.34 766.48 679.92 699.77 592.67 625.01 506.87 563.55 434.5 522.96 376.73 518.4 326.41 558.37 287.15 638.98 255.3 747.64 226.15 860.65 199.52 952.98 173.7 998.57 147.88 985.59 124.1 916.95 104.55 813.55 87.71 699.19 80 599.77 85.58 533.45 98.6 508.71 128.45 523.98 174.46 568.05 221.91 634.31 274.26 702.31 319.17 759.24 338.42 805.42 327.43 828.69 277.01 830.29 190.6 816 77.23 786.49 -41.83 748.67 -137.35 703.59 -187.06 657.99 -172.55 616.67 -99.15 573.95 17.45 538.6 141.95 512.78 229.3 486.95 254.49 471.89 215.63 465.91 124.77 458.54 15.96 457.17 -78.26 457.5 -140.13 450.58 -150.48 437.57 -112.46 412.08 -35.53 370.7 63.27 310.36 164.9 230.34 262.42 139.57 340.91 40.97 397.57 -52.18 435.94 -123.14 457.13 -161.57 468.41 -155.76 470.26 -108.39 471.87 -23.67 478.75 80.72 483.74 174.16 498.1 237.58 523.92 250.58 549.74 205 585.79 117.92 629.5 14.87 671.31 -83.82 716.67 -149.75 759.56 -170.81 793.03 -147.33 814.36 -83.58 815.79 4.75 798.92 106.4 757.5 203.72 693.82 285.67 626.03 350.6 557.83 393.3 507.79 417.4 496.65 425.22 530.16 423.67 610.95 419.73 724.11 409.88 847.61 405 948.44 408.8 997.26 411.75 977.3 425.47 889.95 451.29Q889.95 451.29 889.95 451.29" opacity="0.12"></path><path d="M855.9 578.93C743.24 602.4 629.8 631.76 543.71 664.98 502.52 696.59 511.26 728.83 560.79 757.47 640.93 779.46 726.92 791.71 799.96 789.46 854.19 775.36 875.87 743.59 866.4 694.79 830.78 640.88 775 580.74 709.5 524.8 635.25 489.21 563.67 478.05 500.05 499.94 437.61 556.64 385.36 642.62 343.55 745.43 303.01 845.85 270.99 925.34 247.52 964.58 224.05 955.23 210.23 898.71 206.51 810.15 204.05 706.73 213.6 608.44 235.37 531.3 258.31 483.86 291.23 469.78 329.31 484.3 358.63 524.4 380.72 576.31 385.57 629.05 364.27 682.85 314.77 724.08 236.1 749.78 138.61 765.98 31.58 767.01 -65.77 756.31 -132.5 738.99 -154.59 715.36 -122.46 689.4 -45.44 661.63 63.24 635.04 175.9 611.57 257.74 588.1 289.37 568.85 267.42 552.36 197.94 534.05 104.54 514.98 12.02 491.62 -65.49 461.65 -107.07 421.97 -108.67 369.59 -74.12 307.71 -9.94 232.79 70.2 148.22 160.7 64.72 247.17 -15.02 322.28 -79.56 389.15 -118.51 441.14 -125.49 480.39 -95.26 511.9 -35.32 536.31 49.6 557.67 143.96 576.75 223.47 597.15 275.23 620.62 284.58 644.09 245.34 669.52 170.61 694.71 79.24 717.62 -14.5 735.91 -87.12 745.09 -126.61 746.51 -131.3 733.18 -99.09 702.49 -39.06 663.56 41.31 610.79 129.28 551.06 213.95 501.66 293.52 465.3 358.98 455.19 409.26 481.22 447.69 543.84 474.09 638.56 492.77 748.27 504.81 855.04 515.28 933.59 527.93 964.61 538.97 937.76 555.45 855.95 578.92Q855.9 578.93 855.9 578.93" opacity="0.41"></path><path d="M822.38 626.85C721.62 647.98 617.67 668.23 531.94 686.29 478.57 702.85 464.63 714.45 486.98 718.41 541.15 717.6 610.83 705.79 681.36 681.47 748.32 651.82 796.3 611.03 821.51 562.53 827.46 518.14 812.02 476.79 781.21 446.92 737.91 438.77 688.44 454.01 638.89 496.23 585.8 563.05 537.8 648.95 497.75 742.86 457.41 830 426 897.18 404.88 930.47 383.75 924.26 373.92 878.96 374.42 805.18 374.62 714.87 384.2 622.65 400.67 541.7 420.95 460.54 429.85 452.62 388.77 501.33 335.87 545.37 262.84 586.44 173.89 619.71 81.36 650.63 -7.26 670.27 -76.91 678.74 -114.75 683.4 -112.83 679.02 -67.61 667.55 9.95 654.72 109.62 637.24 210.38 616.12 285.96 595 321.89 571.22 314.37 544.22 265.56 515.85 190.93 481.8 108.14 440.54 26.96 395.45 -33.31 341.04 -65.21 277.56 -69.73 211.73 -45.22 140.33 0.77 68.6 63.93 5.62 134.66 -46.27 204.84 -78.8 276.46 -87.7 340.14 -69.11 393.82 -22.22 444.17 43.24 485.36 123.42 518.51 205.58 550.18 271.22 576.35 312.25 597.47 318.48 618.59 285.2 633.67 222.31 641.84 143.32 648.54 57.56 645.78 -16.31 632.04 -67.65 614.97 -94.4 586.07 -90.7 547.02 -60.55 509.39 -8.69 468.99 57.69 433.52 129.78 415.21 205.96 415.75 277.08 442.27 339.29 496.16 396.18 575.39 442.77 672.05 480.19 770.33 512.84 856.98 539.67 913.94 562.95 929.61 584.73 897.96 605.73 822.38 626.85Q822.38 626.85 822.38 626.85" opacity="0.39"></path><path d="M787.89 574C698.85 592.78 605.43 605.44 523.32 611.68 447.55 615.89 480.43 580.14 558.89 539.46 621.11 510.14 676.7 476.46 719.85 442.67 762.06 409.65 755.24 432.78 721.26 505.67 691.56 576.01 660.78 657.04 632.26 739.72 602.59 813.31 577.54 868.83 558.76 896.59 539.98 893.03 528.37 857.9 522.62 798.41 515.72 722.55 512.35 640.39 509.5 562.04 501.64 492.99 489.34 440.07 468.61 405.37 437.5 388.98 393.47 388.67 335.18 399.91 267.42 422.74 189.57 449.29 107.79 474.81 32.85 503.28 -30.11 525.92 -70.79 540.75 -83 554.93 -62.6 560.67 -9.61 557.87 65.24 554.54 154.85 543.51 243.89 524.74 313.05 505.96 351.89 480.32 356.71 448.24 327.41 415.62 273.34 375.72 206.15 329 131.61 281.62 65.45 228.07 15.78 170.66 -17.61 116.19 -28.14 62.69 -18.26 15.24 8.41 -20.6 48.48 -42.55 95.67 -45.72 150.01 -30.57 204.12 5.5 253.96 60.79 304.73 125.38 348.73 196.85 384.55 265.47 420.1 317.71 447.67 349.03 466.45 352.59 485.23 324.83 494.34 273.11 494.2 206.77 493.8 131.34 483.96 61 465.73 4.42 448.44 -36.94 425.25 -55.63 399.85 -52.31 381.6 -30.13 368.48 8.62 366.4 58 381.12 116.4 413.91 177.03 466.86 235.3 536.07 294.04 619.07 346.73 707.37 392.02 788.33 435.46 853.09 472.03 889.65 502.03 892.1 531.21 857.08 555.21 787.94 573.99Q787.89 574 787.89 574" opacity="0.96"></path><path d="M753.94 443.62C594.19 476.48 454.95 477.82 392.55 451.85 417.94 428.23 498 388.72 582.38 356.65 663.59 363.23 702.79 416.55 703.83 525.09 689.84 663.36 659.66 795.64 626.8 862.58 593.94 835.94 561.51 726.64 518.55 588.47 460.56 460.03 370.07 376.76 245.8 341.98 60.89 360.56 55.23 411.34 277.94 377.73 378.54 344.87 378.5 283.76 298.73 204.08 173.26 130.36 71.75 55.02 25.98 5.39 26.43 -2.89 72.47 45.52 133.29 149.88 206.49 263.96 266.72 359.94 299.58 386.58 332.44 319.64 334.82 200.68 318.57 86.5 314.7 2.04 319.95 -16.41 362.56 20.06 451.4 95.21 587.76 186 737.32 266.57 841.18 349.49 854.54 410.76 753.94 443.62Q753.94 443.62 753.94 443.62" opacity="0.10"></path><path d="M719.9 293.89C583.59 322.06 454.45 326.72 374.12 315.45 355.17 311.15 387.43 306.33 441.04 318.63 511.77 361.33 564.39 440.01 588.14 551.06 606.2 670.73 599.57 776.24 571.41 828.58 543.24 811.51 496.2 729.59 429.33 617.09 356.77 497.79 260.19 400.01 152.54 335.39 62.01 298.91 -0.11 284.75 -1.81 277.2 57.86 278.23 175.59 268.77 311.9 240.61 404.28 212.44 424.73 168.23 381.22 118.38 289.15 77.12 194.48 47.33 127.59 46.89 81.96 74.59 75.09 142.48 93.58 241.13 123.97 332.98 159.12 403.5 187.28 420.59 215.46 368.26 233.97 274.17 252.39 175.14 282.71 84.72 333.53 35.92 416.07 30.13 519.87 54.74 644.42 103.53 757.14 156.64 821.31 216.71 812.29 265.72 719.95 293.88Q719.9 293.89 719.9 293.89" opacity="0.55"></path><path d="M685.9 191.31C573.25 214.78 459.9 229.6 374.06 241.3 324.88 259.64 314.19 286.9 328.42 331.76 364.85 394.32 400.66 479.79 421.82 579.62 444.59 675.69 446.19 755.35 422.72 794.58 399.25 785.23 352.93 728.1 289.48 643.64 227.65 544.99 155.2 451.44 88.01 376.17 43.01 314.42 28.8 271.52 60.78 241.88 129.41 218.86 233.25 197.9 345.9 174.43 444.73 139.07 360.79 101.63 264.9 135.75 205.22 180.26 170.03 248.9 159.56 330.35 155.43 397.6 167.32 445.21 190.79 454.59 214.26 415.36 247.08 345.23 291.88 266.35 343.03 183.72 414.85 123.14 505.29 91.35 597.46 77.25 691.32 86.62 762.43 108.95 792.21 137.93 767.76 167.83 685.95 191.3Q685.9 191.31 685.9 191.31" opacity="0.31"></path><path d="M652.12 181.51C563.11 200.29 469.94 223.51 389.86 252.52 327.29 285.33 288.2 329.96 269.26 387.57 267.18 451.72 272.66 527.59 275.98 606.5 283.44 676.89 280.25 732.76 261.47 760.53 242.69 756.99 210.1 721.09 170.11 664.07 134.24 592.48 99.45 517.38 76.92 449.55 71.26 384.52 90.43 331.44 139.23 291.72 205.55 255.04 291.11 227.32 380.12 208.54 469.29 185.74 462.54 204.91 406.14 257.22 359.92 300.44 324.61 355.62 306.39 413.45 289.11 456.7 289.14 484.99 307.92 488.53 326.7 460.76 362.45 412.5 412.26 355.88 463.03 290.73 527.64 234.78 598.47 195.24 689.44 154.58 737.49 156.45 652.12 181.51Q652.12 181.51 652.12 181.51" opacity="0.83"></path><path d="M617.9 268.98C481.59 297.15 352 368.01 273.34 468.1 227.66 568.73 204.06 674.24 175.89 726.58 147.72 709.51 120.32 626.76 129.09 533.6 170.83 432.15 277.59 356.07 413.9 327.9 506.28 299.73 533.59 324.82 519.23 389.35 473.13 445.59 447.32 505.51 475.49 522.58 503.66 470.24 580.46 387.56 663.48 323.85 714.76 260.68 710.28 240.81 617.9 268.98Q617.9 268.98 617.9 268.98" opacity="0.65"></path><path d="M583.95 414.68C401.23 452.24 249.66 609.62 212.11 692.57 174.55 654.67 265.23 516.83 447.95 479.27 554.46 441.72 564.16 518.67 601.72 556.57 639.27 473.62 690.46 377.13 583.95 414.68Q583.95 414.68 583.95 414.68" opacity="0.77"></path></g></svg>