<svg xmlns="http://www.w3.org/2000/svg" version="1.1" xmlns:xlink="http://www.w3.org/1999/xlink" xmlns:svgjs="http://svgjs.dev/svgjs" viewBox="0 0 800 800"><defs><linearGradient x1="50%" y1="0%" x2="50%" y2="100%" id="wwwhirl-grad"><stop stop-color="hsl(206, 75%, 49%)" stop-opacity="1" offset="45%"></stop><stop stop-color="hsl(331, 90%, 56%)" stop-opacity="1" offset="100%"></stop></linearGradient></defs><g stroke-width="2" stroke="url(#wwwhirl-grad)" fill="none" stroke-linecap="round"><path d="M37.00000251770027 438.93259842008683C50.75000289917 423.2575979852113 75.50000358581553 370.705096527234 103.000004348755 363.6925963326844C130.50000511169446 356.68009613813484 141.5000054168703 410.222597623578 169.00000617980973 405.2725974862489C196.5000069427492 400.32259734891977 207.50000724792503 338.28259562772837 235.00000801086446 339.9325956735047C262.500008773804 341.5825957192811 273.5000090789798 404.9425974770936 301.0000098419193 413.19259770597546C328.50001060485874 421.4425979348573 339.5000109100345 369.8388465032014 367.000011672974 379.53259677213754C394.50001243591345 389.2263470410737 405.5000127410893 466.1163491742525 433.0000135040287 459.72259899686907C460.5000142669682 453.32884881948564 471.50001457214404 359.1550962067994 499.0000153350834 348.8425959206971C526.5000160980228 338.5300956345948 537.5000164031987 410.42884762930004 565.0000171661382 410.222597623578C592.5000179290777 410.01634761785596 603.5000182342535 343.52134577306833 631.000018997193 347.8525958932313C658.5000197601325 352.18384601339426 669.5000200653083 422.7625979714784 697.0000208282477 431.01259820036023C724.5000215911871 439.2625984292421 749.2500222778326 396.52759724363415 763.0000226593024 387.4525969918641 " transform="rotate(99, 400, 400)"></path><path d="M48.00000244140632 437.75281958927127C61.33333614464971 422.55281916757383 85.3333368104878 371.59281775377764 112.00000421697456 364.79281756512347C138.6666716234613 357.99281737646936 149.33333858605602 409.91281881689906 176.00000599254278 405.11281868373146C202.66667339902952 400.31281855056386 213.33334036162427 340.1528168815297 240.000007768111 341.7528169259189C266.6666751745978 343.35281697030814 277.3333421371925 404.7928186748536 304.00000954367925 412.79281889679964C330.66667695016605 420.7928191187457 341.3333439127607 370.7528177304733 368.00001131924745 380.15281799125984C394.66667872573424 389.55281825204645 405.33334568832896 464.1128203205834 432.00001309481576 457.9128201485753C458.66668050130244 451.7128199765671 469.3333474638972 360.39281744305316 496.0000148703839 350.3928171656206C522.6666822768707 340.3928168881881 533.3333492394653 410.1128188224477 560.0000166459522 409.91281881689906C586.666684052439 409.7128188113504 597.3333510150337 345.23281702246544 624.0000184215204 349.4328171389871C650.6666858280073 353.63281725550877 661.3333527906019 422.07281915425705 688.0000201970887 430.0728193762031C714.6666876035754 438.0728195981491 738.6666882694134 396.6328184484687 752.0000219726569 387.8328182043281 " transform="rotate(96, 400, 400)"></path><path d="M59.00000236511238 436.57304457315297C71.9166693901294 421.84804416463356 95.16667003516005 372.4805427950185 121.00000408519412 365.8930426122598C146.83333813522813 359.30554242950114 157.1666717552418 409.60304382491745 183.0000058052758 404.95304369591133C208.83333985530987 400.30304356690516 219.1666734753235 342.02304195002836 245.00000752535757 343.5730419930304C270.8333415753916 345.1230420360324 281.1666751954052 404.64304368731086 307.0000092454393 412.3930439023211C332.83334329547336 420.1430441173313 343.16667691548696 371.6667927724424 369.00001096552097 380.77304302507946C394.83334501555504 389.87929327771644 405.1666786355687 462.10929528161165 431.0000126856027 456.1030451149787C456.8333467356368 450.0967949483458 467.16668035565044 361.6305424940042 493.0000144056845 351.9430422252414C518.8333484557185 342.2555419564787 529.1666820757321 409.7967938302927 555.0000161257661 409.60304382491745C580.8333501758003 409.4092938195422 591.1666837958139 346.94429208655987 617.000017845848 351.0130421994402C642.8333518958821 355.08179231232054 653.1666855158957 421.383044151733 679.0000195659296 429.1330443667432C704.8333536159636 436.88304458175344 728.0833542609943 396.73804346800046 741.0000212860114 388.2130432314892 " transform="rotate(93, 400, 400)"></path><path d="M70.00000228881842 435.39327718642926C82.50000263560909 421.1432767910879 105.00000325983231 373.36827546565394 130.00000395341365 366.9932752887907C155.00000464699497 360.61827511192746 165.00000492442751 409.2932764623303 190.00000561800886 404.7932763374857C215.0000063115902 400.29327621264105 225.00000658902275 343.89327464792154 250.00000728260406 345.3932746895364C275.00000797618543 346.8932747311513 285.000008253618 404.4932763291627 310.0000089471993 411.9932765372371C335.00000964078066 419.4932767453115 345.00000991821315 372.58077544380615 370.0000106117945 381.39327568829356C395.00001130537584 390.20577593278097 405.0000115828084 460.10577787203437 430.0000122763897 454.2932777107767C455.000012969971 448.4807775495191 465.0000132474036 362.8682751743498 490.00001394098496 353.49327491425674C515.0000146345662 344.11827465416377 525.0000149119987 409.48077646753217 550.0000156055801 409.2932764623303C575.0000162991615 409.10577645712846 585.000016576594 348.6557747800488 610.0000172701755 352.59327488928784C635.0000179637568 356.5307749985269 645.0000182411893 420.6932767786034 670.0000189347705 428.1932769866778C695.0000196283519 435.6932771947522 717.5000202525752 396.8432761169268 730.0000205993658 388.59327588804496 " transform="rotate(90, 400, 400)"></path><path d="M81.00000221252448 434.21349454091643C93.08333588108879 420.4384941587531 114.83333648450457 374.2559928775003 139.0000038216332 368.0934927065325C163.1666711587618 361.9309925355647 172.83333809361326 408.9834938409541 197.0000054307419 404.63349372027096C221.16667276787052 400.2834935995878 230.833339702722 345.76349208702567 255.00000703985063 347.21349212725335C279.16667437697924 348.6634921674811 288.83334131183074 404.34349371222544 313.00000864895935 411.593493913364C337.16667598608797 418.8434941145026 346.8333429209394 373.49474285638075 371.000010258068 382.0134930927186C395.16667759519663 390.5322433290564 404.8333445300481 458.1022452036681 429.00001186717674 452.48349504778565C453.16667920430535 446.86474489190323 462.8333461391569 364.1059925959063 487.00001347628546 355.04349234448307C511.1666808134141 345.9809920930598 520.8333477482655 409.16474384598257 545.0000150853941 408.9834938409541C569.1666824225229 408.80224383592565 578.8333493573742 350.36724221474867 603.000016694503 354.17349232034644C627.1666840316316 357.97974242594415 636.8333509664831 420.0034941466848 661.0000183036116 427.2534943478234C685.1666856407402 434.50349454896195 706.9166862441559 396.9484935070641 719.0000199127203 388.9734932858116 " transform="rotate(87, 400, 400)"></path><path d="M92.00000213623053 433.03372715419266C103.6666691265685 419.7337267852074 124.66666970917683 375.1437255481357 148.00000368985275 369.1937253830634C171.33333767052864 363.243725217991 180.666671262799 408.67372647836703 204.00000524347493 404.47372636184537C227.33333922415085 400.2737262453237 236.66667281642125 347.63372478491885 260.00000679709717 349.03372482375937C283.33334077777306 350.43372486259995 292.66667437004344 404.1937263540772 316.0000083507193 411.19372654828004C339.3333423313953 418.1937267424828 348.66667592366565 374.4087255277444 372.00000990434154 382.6337257559327C395.3333438850174 390.85872598412095 404.6666774772878 456.0987277940908 428.00001145796375 450.6737276435837C451.3333454386397 445.24872749307656 460.6666790309101 365.34372527625186 484.000013011586 356.59372503349834C507.33334699226185 347.8437247907449 516.6666805845323 408.8487264832221 540.0000145652082 408.67372647836703C563.3333485458841 408.49872647351197 572.6666821381544 352.0787249082376 596.0000161188304 355.75372501019405C619.3333500995063 359.4287251121505 628.6666836917767 419.31372677355523 652.0000176724526 426.31372696775804C675.3333516531285 433.3137271619608 696.3333522357368 397.05372615599043 708.0000192260748 389.35372594236736 " transform="rotate(84, 400, 400)"></path><path d="M103.00000205993659 431.85394832337715C114.25000237204819 419.02894796756993 134.5000029338491 376.03144677467935 157.00000355807228 370.2939466155024C179.50000418229547 364.55644645632555 188.5000044319848 408.3639476716881 211.00000505620795 404.3139475593279C233.50000568043117 400.26394744696773 242.50000593012047 349.5039460387202 265.0000065543437 350.8539460761736C287.5000071785669 352.203946113627 296.5000074282562 404.0439475518373 319.0000080524794 410.7939477391042C341.5000086767026 417.5439479263712 350.50000892639184 375.32269675501635 373.00000955061506 383.253946975055C395.5000101748383 391.1851971950937 404.5000104245276 454.09519894042177 427.00001104875076 448.86394879528984C449.500011672974 443.632698650158 458.5000119226633 366.58144651250564 481.00001254688647 358.14394627842194C503.50001317110963 349.70644604433824 512.5000134207988 408.53269767636976 535.0000140450221 408.3639476716881C557.5000146692455 408.1951976670064 566.5000149189347 353.79019615763474 589.0000155431579 357.33394625594985C611.5000161673811 360.877696354265 620.5000164170704 418.6239479563339 643.0000170412935 425.37394814360084C665.5000176655168 432.12394833086785 685.7500182273176 397.158947360825 697.0000185394292 389.7339471548313 " transform="rotate(81, 400, 400)"></path><path d="M114.00000198364263 430.6741656778643C124.83333561752788 418.32416533523514 144.33333615852135 376.91916418652573 166.0000034262918 371.39416403324424C187.6666706940623 365.8691638799628 196.3333376011705 408.05416505031195 218.000004868941 404.15416494211325C239.6666721367115 400.25416483391456 248.3333390438197 351.3741634778243 270.0000063115902 352.67416351389056C291.6666735793607 353.97416354995676 300.33334048646896 403.8941649349 322.0000077542394 410.39416511523115C343.6666750220099 416.8941652955623 352.3333419291181 376.23666416759096 374.0000091968886 383.8741643794801C395.6666764646591 391.51166459136914 404.3333433717673 452.0916662720555 426.0000106395378 447.0541661322988C447.66667790730827 442.0166659925422 456.3333448144165 367.81916393406215 478.00001208218697 359.6941637086482C499.66667934995746 351.56916348323426 508.33334625706556 408.2166650548202 530.0000135248362 408.05416505031195C551.6666807926067 407.8916650458036 560.3333476997147 355.5016635923346 582.0000149674854 358.91416368700845C603.6666822352558 362.3266637816823 612.3333491423641 417.9341653244153 634.0000164101345 424.43416550474643C655.666683677905 430.9341656850776 675.1666842188985 397.2641647509622 686.0000178527837 390.11416455259797 " transform="rotate(78, 400, 400)"></path><path d="M125.00000190734869 429.4944059205351C135.41666886300757 417.619405591084 154.1666693831936 377.8069044865557 175.00000329451137 372.49440433916965C195.83333720582914 367.1819041917836 204.16667077035626 407.74440531711934 225.00000468167406 403.99440521308213C245.83333859299182 400.2444051090449 254.16667215751897 353.24440380511203 275.00000606883674 354.49440383979106C295.8333399801545 355.74440387447015 304.16667354468166 403.7444052061463 325.0000074559994 409.99440537954166C345.8333413673172 416.244405552937 354.16667493184434 377.15065446834916 375.00000884316205 384.4944046720887C395.8333427544799 391.8381548758282 404.166676319007 450.0881564918727 425.0000102303248 445.24440635749136C445.83334414164256 440.40065622311 454.1666777061697 369.05690424380225 475.0000116174875 361.24440402705807C495.83334552880524 353.4319038103139 504.1666790933323 407.9006553214542 525.0000130046501 407.74440531711934C545.8333469159679 407.58815531278447 554.166680480495 357.2131539152181 575.0000143918128 360.4944040062506C595.8333483031306 363.77565409728317 604.1666818676579 417.2444055806802 625.0000157789755 423.4944057540756C645.8333496902933 429.74440592747095 664.5833502104794 397.3694050292831 675.0000171661382 390.49440483854823 " transform="rotate(75, 400, 400)"></path><path d="M136.00000183105476 428.31461946032505C146.00000210848728 416.9146191440519 164.00000260786584 378.69461808370477 184.00000316273093 373.5946179422142C204.00000371759597 368.49461780072363 212.000003939542 407.4346188810459 232.00000449440708 403.8346187811702C252.00000504927215 400.2346186812945 260.0000052712182 355.1146174295189 280.0000058260833 356.31461746281076C300.0000063809483 357.5146174961027 308.00000660289436 403.5946187745118 328.00000715775946 409.5946189409713C348.00000771262455 415.59461910743084 356.00000793457053 378.06461806622656 376.0000084894356 385.1146182618165C396.00000904430067 392.1646184574064 404.0000092662467 448.08462000880917 424.0000098211118 443.43461987980305C444.0000103759769 438.7846197507969 452.0000105979229 370.29461785066144 472.000011152788 362.79461764258707C492.000011707653 355.29461743451265 500.00001192959905 407.58461888520736 520.0000124844642 407.4346188810459C540.0000130393292 407.2846188768844 548.0000132612753 358.92461753522065 568.0000138161404 362.0746176226119C588.0000143710055 365.22461771000314 596.0000145929514 416.55461913406435 616.0000151478165 422.5546193005239C636.0000157026815 428.5546194669834 654.00001620206 397.4746186047231 664.0000164794926 390.8746184216176 " transform="rotate(72, 400, 400)"></path><path d="M146.9999864959717 427.134848258904C156.5833200951779 416.209847955809 173.83332057374906 379.58234693964295 192.9999877721614 374.6948468040478C212.16665497057375 369.8073466684526 219.8333218499387 407.12484770376153 238.99998904835104 403.6748476080473C258.1666562467634 400.22484751233304 265.8333231261284 356.9848463127148 284.9999903245407 358.1348463446195C304.1666575229531 359.28484637652423 311.83332440231806 403.4448476016663 330.9999916007304 409.19484776119003C350.1666587991428 414.94484792071376 357.83332567850766 378.97859692289296 376.99999287692003 385.7348471103333C396.1666600753324 392.49109729777365 403.8333269546974 446.0810987845346 422.99999415310975 441.62484866090375C442.1666613515221 437.1685985372729 449.83332823088705 371.53234671630975 468.9999954292994 364.34484651690514C488.16666262771173 357.15734631750047 495.83332950707666 407.2685977077496 514.9999967054891 407.12484770376153C534.1666639039015 406.98109769977344 541.8333307832664 360.63609641401234 560.9999979816788 363.65484649776226C580.1666651800912 366.67359658151224 587.8333320594561 415.86484794623755 606.9999992578685 421.61484810576127C626.1666664562807 427.364848265285 643.4166669348518 397.57984743895213 653.000000534058 391.25484726347605 " transform="rotate(69, 400, 400)"></path><path d="M157.99998641967778 425.9550732427857C167.1666533406576 415.5050729528688 183.6666537984213 380.47007198088386 201.99998764038094 375.79507185118416C220.33332148234058 371.1200717214844 227.66665501912445 406.81507271177986 245.9999888610841 403.5150726202271C264.33332270304373 400.2150725286744 271.6666562398276 358.8550713812134 289.99999008178725 359.955071411731C308.3333239237469 361.05507144224856 315.6666574605308 403.29507261412357 333.99999130249046 408.7950727667115C352.3333251444501 414.2950729192994 359.6666586812339 379.8925719648621 377.99999252319355 386.35507214415287C396.3333263651532 392.81757232344364 403.6666599019371 444.07757374556286 421.99999374389677 439.81507362730724C440.3333275858564 435.5525735090516 447.6666611226403 372.7700717672608 465.9999949645999 365.89507157652594C484.3333288065595 359.0200713857911 491.6666623433434 406.95257271559456 509.9999961853031 406.81507271177986C528.3333300272627 406.67757270796517 535.6666635640465 362.3475714781067 553.9999974060063 365.2350715582154C572.3333312479659 368.122571638324 579.6666647847499 415.1750729437135 597.9999986267094 420.67507309630133C616.3333324686689 426.17507324888925 632.8333329264326 397.68507245848394 641.9999998474125 391.63507229063725 " transform="rotate(66, 400, 400)"></path><path d="M168.99998634338385 424.77530204136474C177.7499865861373 414.8003017646258 193.49998702309355 381.35780083682204 210.9999875086005 376.8953007130177C228.4999879941074 372.43280058921346 235.49998818831023 406.50530153449546 252.99998867381714 403.35530144710424C270.49998915932406 400.20530135971296 277.49998935352687 360.7253002644093 294.9999898390338 361.7753002935398C312.4999903245407 362.82530032267016 319.4999905187435 403.14530144127815 336.99999100425043 408.39530158693026C354.49999148975735 413.6453017325823 361.49999168396016 380.80655082152856 378.9999921694671 386.97530099266976C396.49999265497405 393.14405116381096 403.4999928491768 442.0740525212883 420.9999933346837 438.00530240840794C438.4999938201907 433.93655229552763 445.4999940143935 374.0078006329091 462.9999944999004 367.445300450844C480.4999949854073 360.8828002687789 487.4999951796101 406.63655153813676 504.99999566511707 406.50530153449546C522.4999961506239 406.37405153085416 529.4999963448267 364.0590503568984 546.9999968303338 366.81530043336573C564.4999973158407 369.57155050983306 571.4999975100434 414.48530175588667 588.9999979955503 419.7353019015387C606.4999984810572 424.9853020471908 622.2499989180135 397.790301292713 630.999999160767 392.0153011324957 " transform="rotate(63, 400, 400)"></path><path d="M179.9999862670899 423.59551558115464C188.33331983161702 414.09551531759377 203.3333202477658 382.2455144339711 219.99998737682003 377.99551431606227C236.66665450587425 373.74551419815344 243.33332135749595 406.19551509842205 259.9999884865502 403.19551501519226C276.6666556156044 400.1955149319625 283.33332246722614 362.5955138888162 299.99998959628033 363.5955139165594C316.6666567253345 364.5955139443027 323.3333235769563 402.9955150096436 339.9999907060105 407.9955151483599C356.6666578350647 412.99551528707616 363.3333246866864 381.7205144194059 379.9999918157406 387.5955145823975C396.6666589447948 393.47051474538915 403.33332579641655 440.07051603822475 419.9999929254708 436.19551593071964C436.666660054525 432.3205158232145 443.3333269061467 375.24551423976834 459.9999940352009 368.995514066373C476.6666611642551 362.74551389297767 483.33332801587676 406.32051510188995 499.99999514493106 406.19551509842205C516.6666622739854 406.07051509495415 523.333329125607 365.770513976901 539.9999962546613 368.39551404972707C556.6666633837156 371.0205141225531 563.3333302353371 413.79551530927074 579.9999973643913 418.79551544798704C596.6666644934455 423.7955155867033 611.6666649095944 397.89551486815304 619.9999984741214 392.3955147155651 " transform="rotate(60, 400, 400)"></path><path d="M190.99998619079594 422.4157443797336C198.9166530770967 413.39074412935076 213.16665347243807 383.1332432899093 228.99998724503956 379.0957431778959C244.83332101764108 375.0582430658825 251.1666545266817 405.88574392113765 266.99998829928325 403.0357438420694C282.8333220718847 400.18574376300114 289.16665558092535 364.4657427720121 304.99998935352687 365.41574279836817C320.83332312612833 366.3657428247243 327.166656635169 402.84574383679814 342.9999904077705 407.59574396857863C358.833324180372 412.34574410035907 365.1666576894126 382.6344932760723 380.9999914620141 388.21574343091436C396.8333252346156 393.7969935857564 403.1666587436563 438.06699481395026 418.99999251625775 434.3857447118204C434.83332628885927 430.7044946096905 441.1666597978999 376.48324310541665 456.99999357050143 370.54574294069107C472.8333273431029 364.6082427759655 479.1666608521435 406.00449392443215 494.99999462474506 405.88574392113765C510.8333283973466 405.76699391784314 517.1666619063872 367.4819928556927 532.9999956789886 369.9757429248774C548.8333294515903 372.46949299406214 555.1666629606309 413.10574412144393 570.9999967332324 417.85574425322443C586.8333305058338 422.60574438500487 601.0833309011753 398.0007437023821 608.9999977874759 392.7757435574236 " transform="rotate(57, 400, 400)"></path><path d="M201.999986114502 421.23596173422084C209.49998632257638 412.685961497016 222.99998669711033 384.02096070175566 237.99998711325912 380.1959605956377C252.99998752940792 376.37096048951975 258.99998769586745 405.5759612997615 273.99998811201624 402.8759612248547C288.9999885281651 400.1759611499479 294.99998869462456 366.33596021111623 309.9999891107734 367.23596023608513C324.9999895269222 368.13596026105404 330.99998969338174 402.6959612198609 345.99999010953053 407.19596134470555C360.9999905256793 411.6959614695502 366.9999906921388 383.54846068864697 381.99999110828765 388.8359608353394C396.99999152443644 394.1234609820319 402.99999169089597 436.0634621455839 417.99999210704476 432.5759620488293C432.99999252319355 429.08846195207474 438.99999268965314 377.72096052697316 453.99999310580193 372.09596037091734C468.9999935219507 366.4709602148615 474.9999936884102 405.6884613028826 489.99999410455905 405.5759612997615C504.9999945207079 405.4634612966404 510.9999946871674 369.1934602903925 525.9999951033162 371.555960355936C540.9999955194651 373.91846042147944 546.9999956859245 412.41596148952533 561.9999961020733 416.91596161436996C576.9999965182221 421.4159617392146 590.499996892756 398.10596109251935 597.9999971008303 393.15596095519027 " transform="rotate(54, 400, 400)"></path><path d="M212.99998603820805 420.0561905327998C220.08331956805608 411.981190308773 232.8333199217826 384.90868955769383 246.99998698147868 381.2961894574713C261.16665404117475 377.6836893572488 266.8333208650532 405.2661901224771 280.9999879247493 402.7161900517318C295.16665498444536 400.1661899809865 300.83332180832383 368.2061890943121 314.99998886801995 369.0561891178939C329.166655927716 369.90618914147564 334.83332275159444 402.54619004701544 348.99998981129056 406.79619016492427C363.1666568709866 411.0461902828331 368.83332369486504 384.4624395453134 382.99999075456117 389.4561896838562C397.16665781425723 394.44993982239913 402.8333246381357 434.05994092130936 416.9999916978318 430.76619082993005C431.1666587575279 427.47244073855074 436.8333255814063 378.95868939262147 450.99999264110244 373.6461892452354C465.1666597007985 368.3336890978494 470.8333265246769 405.3724401254248 484.99999358437304 405.2661901224771C499.16666064406917 405.1599401195294 504.8333274679476 370.9049391691842 518.9999945276437 373.13618923108635C533.1666615873398 375.3674392929885 538.8333284112182 411.7261903016985 552.9999954709143 415.97619041960735C567.1666625306103 420.2261905375162 579.9166628843368 398.21118992674843 586.9999964141849 393.53618979704873 " transform="rotate(51, 400, 400)"></path><path d="M223.9999859619141 418.8764155166815C230.6666528135358 411.2764153058328 242.66665314645485 385.7964145989347 255.99998684969822 382.39641450460766C269.3333205529416 378.9964144102806 274.66665403423895 404.95641513049543 287.99998773748234 402.55641506391163C301.3333214407257 400.15641499732783 306.6666549220231 370.07641416281075 319.99998862526644 370.8764141850054C333.33332232850984 371.67641420719997 338.6666558098072 402.3964150594727 351.99998951305054 406.3964151704457C365.33332321629393 410.39641528141874 370.6666566975913 385.3764145872825 383.9999904008347 390.07641471767585C397.3333241040781 394.7764148480691 402.66665758537545 432.0564158823376 415.99999128861884 428.95641579633354C429.3333249918621 425.85641571032943 434.66665847315954 380.1964144435725 447.9999921764029 375.1964143048562C461.3333258796463 370.19641416613996 466.6666593609436 405.05641513326975 479.99999306418704 404.95641513049543C493.33332676743044 404.8564151277211 498.6666602487278 372.61641423327865 511.99999395197113 374.7164142915394C525.3333276552146 376.8164143498003 530.666661136512 411.03641529917445 543.9999948397553 415.0364154101474C557.3333285429986 419.0364155211205 569.3333288759177 398.31641494628025 575.9999957275394 393.91641482420994 " transform="rotate(48, 400, 400)"></path><path d="M234.99998588562016 417.696636685866C241.2499860590155 410.5716364881953 252.49998637112708 386.68413582547834 264.99998671791775 383.49663573704674C277.4999870647084 380.3091356486151 282.49998720342467 404.64663632381655 294.99998755021534 402.3966362613942C307.499987897006 400.14663619897186 312.4999880357223 371.94663541661214 324.999988382513 372.69663543741956C337.49998872930365 373.44663545822704 342.49998886801995 402.2466362572327 354.9999892148106 405.9966363612699C367.4999895616013 409.7466364653071 372.49998970031754 386.29038581455444 384.9999900471082 390.69663593679815C397.4999903938989 395.10288605904185 402.49999053261513 430.0528870286686 414.9999908794058 427.1466369480397C427.49999122619647 424.2403868674109 432.4999913649127 381.4341356798262 444.9999917117034 376.74663554977974C457.49999205849406 372.05913541973325 462.4999921972103 404.7403863264175 474.999992544001 404.64663632381655C487.4999928907917 404.5528863212156 492.49999302950795 374.32788548267575 504.9999933762987 376.2966355372953C517.4999937230893 378.2653855919148 522.4999938618056 410.34663648195306 534.9999942085963 414.09663658599027C547.4999945553868 417.8466366900275 558.7499948674986 398.4216361511148 564.9999950408939 394.2966360366739 " transform="rotate(45, 400, 400)"></path><path d="M245.9999858093262 416.5168616697477C251.83331930449518 409.8668614852551 262.33331959579937 387.57186086671925 273.9999865861373 384.59686078418304C285.66665357647526 381.6218607016469 290.33332037261044 404.3368613318349 301.9999873629484 402.23686127357405C313.6666543532864 400.1368612153132 318.3333211494216 373.8168604851108 329.9999881397595 374.51686050453105C341.66665513009747 375.2168605239513 346.33332192623266 402.09686126969 357.9999889165706 405.59686136679136C369.66665590690855 409.09686146389276 374.3333227030438 387.2043608565236 385.99998969338174 391.3168609706177C397.6666566837197 395.42936108471184 402.3333234798548 428.04936198969676 413.9999904701928 425.3368619144432C425.6666574605308 422.62436183918965 430.33332425666595 382.67186073077727 441.99999124700395 378.29686060940054C453.66665823734184 373.9218604880238 458.3333250334771 404.4243613342624 469.999992023815 404.3368613318349C481.66665901415297 404.24936132940735 486.33332581028816 376.0393605467702 497.99999280062616 377.8768605977484C509.6666597909641 379.7143606487266 514.3333265870992 409.656861479429 525.9999935774372 413.1568615765304C537.6666605677751 416.65686167363174 548.1666608590793 398.52686117064655 553.9999943542483 394.6768610638351 " transform="rotate(42, 400, 400)"></path><path d="M256.99998573303225 415.33708283893213C262.41665254997486 409.1620826676176 272.1666528204716 388.45958209326284 282.9999864543569 385.6970820166221C293.8333200882421 382.9345819399814 298.1666535417962 404.02708252515595 308.99998717568144 402.0770824710566C319.83332080956666 400.12708241695725 324.1666542631208 375.6870817389122 334.999987897006 376.3370817569453C345.8333215308913 376.9870817749784 350.1666549844454 401.94708246745 360.99998861833063 405.19708255761554C371.8333222522159 408.44708264778114 376.16665570577 388.1183320837955 386.99998933965526 391.93708218974C397.8333229735405 395.75583229568457 402.1666564270946 426.04583313602774 412.9999900609798 423.52708306614943C423.83332369486504 421.00833299627106 428.1666571484192 383.90958196703104 438.9999907823044 379.8470818543241C449.83332441618967 375.7845817416171 454.16665786974374 404.1083325274101 464.999991503629 404.02708252515595C475.8333251375143 403.9458325229018 480.1666585910683 377.7508317961673 490.99999222495364 379.4570818435042C501.83332585883886 381.16333189084116 506.166659312393 408.96708266220764 516.9999929462782 412.2170827523732C527.8333265801634 415.4670828425388 537.5833268506601 398.6320823754811 542.9999936676028 395.05708227629896 " transform="rotate(39, 400, 400)"></path><path d="M267.9999856567383 414.1573078228139C272.99998579545456 408.45730766467733 281.9999860451438 389.34730713450375 291.99998632257643 386.79730706375847C301.9999866000089 384.2473069930132 305.99998671098194 403.71730753317433 315.9999869884145 401.91730748323647C325.99998726584704 400.1173074332986 329.99998737682006 377.5573068074108 339.99998765425255 378.1573068240568C349.9999879316851 378.7573068407027 353.9999880426581 401.79730747990726 363.99998832009067 404.79730756313705C373.9999885975232 407.7973076463668 377.9999887084962 389.03230712576465 387.9999889859287 392.55730722355963C397.9999892633613 396.08230732135456 401.9999893743343 424.0423080970559 411.99998965176684 421.71730803255286C421.9999899291994 419.3923079680498 425.9999900401724 385.1473070179821 435.9999903176049 381.3973069139449C445.99999059503745 377.6473068099077 449.99999070601046 403.7923075352551 459.999990983443 403.71730753317433C469.99999126087556 403.6423075310936 473.9999913718486 379.4623068602617 483.9999916492811 381.0373069039573C493.9999919267137 382.61230694765294 497.99999203768664 408.2773076596836 507.9999923151192 411.2773077429133C517.9999925925517 414.2773078261431 526.999992842241 398.7373073950129 531.9999929809572 395.43730730346016 " transform="rotate(36, 400, 400)"></path><path d="M279.0000008392334 412.97753089934696C283.58333429972333 407.7525307543885 291.8333345286052 390.23503026839603 301.000001449585 387.8975302035462C310.1666683705648 385.56003013869633 313.8333351389567 403.40753063384403 323.0000020599366 401.75753058806765C332.16666898091637 400.1075305422913 335.83333574930833 379.4275299685608 345.00000267028815 379.9775299838196C354.166669591268 380.5275299990784 357.83333635965994 401.6475305850159 367.00000328063976 404.3975306613099C376.1666702016196 407.1475307376038 379.8333369700115 389.94628026038515 389.0000038909913 393.17753035003057C398.16667081197113 396.4087804396759 401.8333375803631 422.03878115073553 411.0000045013429 419.9075310916077C420.16667142232274 417.7762810324799 423.8333381907147 386.3850301615845 433.00000511169446 382.94753006621704C442.1666720326743 379.51002997084964 445.83333880106625 403.4762806357514 455.00000572204607 403.40753063384403C464.1666726430259 403.3387806319367 467.8333394114178 381.17378001700746 477.0000063323977 382.6175300570618C486.1666732533775 384.0612800971161 489.83334002176946 407.5875307498108 499.0000069427492 410.3375308261048C508.166673863729 413.0875309023987 516.4166740926108 398.8425305071961 521.0000075531008 395.81753042327273 " transform="rotate(33, 400, 400)"></path><path d="M290.00000076293946 411.79775779057735C294.16666754520304 407.04775765879685 301.66666775327747 391.1227572169856 310.00000131780456 388.99775715803116C318.33333488233166 386.87275709907675 321.6666683081425 403.097757549211 330.0000018726696 401.59775750759616C338.33333543719675 400.09775746598126 341.6666688630076 381.2977569444081 350.0000024275347 381.7977569582797C358.3333359920618 382.2977569721513 361.66666941787264 401.49775750482183 370.0000029823998 403.99775757417996C378.3333365469269 406.4977576435381 381.66666997273774 390.8602572097029 390.00000353726483 393.79775729119876C398.3333371017919 396.73525737269455 401.66667052760283 420.03525801911235 410.0000040921299 418.09775796535985C418.333337656657 416.1602579116073 421.6666710824679 387.62275711988417 430.00000464699497 384.49775703318653C438.3333382115221 381.37275694648883 441.6666716373329 403.16025755094495 450.00000520186006 403.097757549211C458.3333387663872 403.03525754747704 461.666672192198 382.8852569884505 470.00000575672516 384.1977570248635C478.3333393212523 385.51025706127655 481.6666727470631 406.89775765463537 490.0000063115902 409.3977577239935C498.3333398761173 411.8977577933517 505.8333400841917 398.9477574340765 510.00000686645524 396.19775735778256 " transform="rotate(30, 400, 400)"></path><path d="M301.00000068664554 410.61798277445905C304.75000079068275 406.34298265585664 311.5000009779497 392.01048225822643 319.00000118602406 390.09798220516745C326.5000013940985 388.18548215210853 329.5000014773283 402.7879825572294 337.00000168540265 401.43798251977597C344.5000018934771 400.08798248232256 347.5000019767068 383.16798201290675 355.00000218478124 383.6179820253912C362.50000239285566 384.06798203787565 365.5000024760854 401.3479825172791 373.00000268415977 403.5979825797014C380.5000028922342 405.8479826421237 383.50000297546393 391.7742322516721 391.00000318353835 394.41798232501833C398.5000033916127 397.06173239836454 401.5000034748425 418.0317329801406 409.00000368291694 416.2879829317633C416.5000038909913 414.544232883386 419.5000039742211 388.8604821708352 427.00000418229547 386.0479820928073C434.5000043903699 383.2354820147794 437.50000447359963 402.84423255878994 445.00000468167406 402.7879825572294C452.5000048897485 402.7317325556688 455.5000049729782 384.5967320525449 463.00000518105264 385.77798208531664C470.50000538912707 386.9592321180883 473.5000054723568 406.2079826521113 481.0000056804312 408.4579827145336C488.5000058885056 410.70798277695593 495.25000607577255 399.0529824536083 499.0000061798097 396.57798238494377 " transform="rotate(27, 400, 400)"></path><path d="M312.00000061035155 409.4382106193637C315.33333403616246 405.6382105139394 321.3333342026219 392.8982101604903 328.0000010542436 391.19821011332675C334.6666679058653 389.4982100661632 337.333334646514 402.47821042627066 344.0000014981357 401.27821039297874C350.6666683497574 400.07821035968686 353.3333350904061 385.03820994242835 360.0000019420278 385.43820995352564C366.6666687936495 385.83820996462293 369.33333553429816 401.1982103907593 376.0000023859198 403.1982104462458C382.6666692375415 405.1982105017323 385.3333359781902 392.6882101546642 392.0000028298119 395.03821021986084C398.6666696814336 397.38821028505754 401.33333642208225 416.0282108021918 408.00000327370395 414.4782107591897C414.6666701253256 412.92821071618766 417.3333368659743 390.0982100828092 424.000003717596 387.5982100134511C430.6666705692177 385.0982099440929 433.33333730986635 402.5282104276578 440.00000416148805 402.47821042627066C446.66667101310975 402.4282104248835 449.3333377537584 386.3082099776623 456.0000046053801 387.35821000679266C462.6666714570018 388.4082100359231 465.3333381976505 405.5182105106102 472.0000050492722 407.5182105660967C478.66667190089385 409.5182106215832 484.6666720673534 399.1582103341631 488.0000054931642 396.9582102731279 " transform="rotate(24, 400, 400)"></path><path d="M323.0000005340576 408.2584336958968C325.9166672816421 404.9334336036505 331.1666674272942 393.7859332943826 337.0000009224632 392.29843325311447C342.83333441763216 390.81093321184636 345.1666678156997 402.16843352694036 351.0000013108687 401.11843349781C356.8333348060377 400.06843346867953 359.16666820410535 386.9084331035783 365.0000016992743 387.25843311328845C370.8333351944433 387.60843312299863 373.16666859251086 401.0484334958679 379.00000208767983 402.79843354441863C384.8333355828488 404.54843359296933 387.1666689809164 393.60218328928477 393.0000024760854 395.6584333463318C398.83333597125437 397.7146834033789 401.16666936932194 414.02468385587133 407.00000286449097 412.6684338182445C412.83333635965994 411.3121837806178 415.1666697577275 391.3359332264116 421.0000032528965 389.14843316572325C426.83333674806545 386.9609331050349 429.1666701461331 402.2121835281541 435.00000364130204 402.16843352694036C440.833337136471 402.1246835257266 443.16667053453864 388.019683134408 449.0000040297076 388.93843315989716C454.8333375248766 389.85718318538625 457.16667092294415 404.8284336007374 463.0000044181131 406.5784336492881C468.8333379132821 408.3284336978388 474.0833380589342 399.26343344634626 477.0000048065187 397.3384333929405 " transform="rotate(21, 400, 400)"></path><path d="M334.0000004577637 407.0786558187556C336.5000005271218 404.2286557396873 341.00000065196645 394.67365547460054 346.00000079068275 393.39865543922787C351.000000929399 392.1236554038552 353.0000009848855 401.8586556739358 358.0000011236018 400.95865564896684C363.00000126231805 400.05865562399794 365.00000131780456 388.778655311054 370.0000014565208 389.078655319377C375.0000015952371 389.3786553277 377.00000165072356 400.89865564730223 382.00000178943986 402.39865568891713C387.00000192815617 403.898655730532 389.0000019836426 394.51615547023096 394.00000212235886 396.27865551912845C399.00000226107517 398.04115556802594 401.0000023165617 412.0211559558766 406.0000024552779 410.85865592362507C411.0000025939942 409.69615589137356 413.00000264948073 392.5736554163397 418.000002788197 390.6986553643211C423.0000029269132 388.8236553123025 425.0000029823998 401.89615567497617 430.00000312111604 401.8586556739358C435.0000032598323 401.82115567289543 437.00000331531885 389.7311553374795 442.0000034540351 390.5186553593273C447.00000359275134 391.30615538117513 449.00000364823785 404.1386557371904 454.00000378695415 405.6386557788053C459.0000039256704 407.1386558204202 463.50000405051503 399.3686556048551 466.00000411987315 397.71865555907874 " transform="rotate(18, 400, 400)"></path><path d="M344.99999656677244 405.8988808026373C347.08332995790425 403.52388073674706 350.83333006194147 395.5613805158414 354.99999684420504 394.4988804863642C359.16666362646856 393.436380456887 360.833330339374 401.54888068195413 364.99999712163753 400.7988806611467C369.1666639039011 400.04888064033923 370.8333306168065 390.6488803795527 374.9999973990701 390.8988803864885C379.16666418133366 391.1488803934243 380.83333089423905 400.74888065975955 384.99999767650263 401.9988806944386C389.16666445876615 403.2488807291177 390.8333311716716 395.4301305122001 394.9999979539351 396.898880552948C399.1666647361987 398.36763059369594 400.83333144910415 410.0176309169048 404.9999982313677 409.04888089002856C409.16666501363125 408.08013086315225 410.8333317265367 393.81138046729075 414.9999985088002 392.2488804239419C419.1666652910638 390.68638038059305 420.8333320039692 401.5801306828211 424.99999878623277 401.54888068195413C429.16666556849634 401.51763068108716 430.83333228140174 391.44263040157387 434.9999990636653 392.0988804197804C439.1666658459289 392.7551304379869 440.8333325588343 403.4488807346663 444.9999993410978 404.6988807693454C449.1666661233614 405.94888080402444 452.9166662273986 399.4738806243869 454.99999961853035 398.09888058623994 " transform="rotate(15, 400, 400)"></path><path d="M355.9999964904785 404.7191048328447C357.66666320338396 402.81910478013253 360.6666632866137 396.449104603408 363.99999671242455 395.59910457982625C367.3333301382354 394.74910455624445 368.66666350855974 401.23910473629815 371.9999969343706 400.6391047196522C375.33333036018144 400.0391047030063 376.6666637305058 392.519104494377 379.9999971563166 392.71910449992566C383.3333305821275 392.9191045054743 384.6666639524518 400.5991047185425 387.9999973782626 401.5991047462858C391.3333308040735 402.599104774029 392.66666417439785 396.344104600495 395.99999760020864 397.51910463309326C399.33333102601955 398.6941046656916 400.6666643963439 408.01410492425873 403.9999978221547 407.2391049027577C407.33333124796553 406.4641048812567 408.6666646182899 395.0491045645674 411.9999980441007 393.7991045298884C415.33333146991157 392.5491044952093 416.6666648402359 401.2641047369917 419.99999826604676 401.23910473629815C423.3333316918576 401.21410473560456 424.66666506218195 393.154104511994 427.9999984879928 393.6791045265592C431.33333191380365 394.20410454112437 432.666665284128 402.75910477846793 435.99999870993884 403.75910480621116C439.33333213574963 404.75910483395444 442.3333322189794 399.5791046902444 443.9999989318849 398.4791046597268 " transform="rotate(12, 400, 400)"></path><path d="M366.9999964141846 403.5393269557035C368.2499964488636 402.1143269161693 370.499996511286 397.33682678362595 372.9999965806441 396.69932676593965C375.49999665000223 396.0618267482533 376.49999667774546 400.9293268832936 378.99999674710364 400.47932687080913C381.49999681646176 400.0293268583247 382.49999684420504 394.3893267018527 384.9999969135631 394.5393267060142C387.4999969829213 394.6893267101757 388.4999970106645 400.4493268699768 390.9999970800227 401.1993268907843C393.4999971493808 401.9493269115917 394.49999717712404 397.25807678144116 396.99999724648217 398.1393268058899C399.49999731584035 399.02057683033865 400.4999973435836 406.01057702426397 402.9999974129417 405.4293270081382C405.4999974822998 404.84807699201247 406.4999975100431 396.2868267544955 408.9999975794012 395.34932672848623C411.49999764875935 394.4118267024769 412.49999767650263 400.94807688381377 414.99999774586075 400.9293268832936C417.4999978152189 400.9105768827734 418.49999784296216 394.8655767150654 420.9999979123203 395.25932672598935C423.4999979816784 395.65307673691325 424.4999980094217 402.0693269149209 426.9999980787798 402.8193269357283C429.49999814813793 403.56932695653575 431.74999821056025 399.68432684875324 432.99999824523934 398.859326825865 " transform="rotate(9, 400, 400)"></path><path d="M378.0000001525879 402.3595538469338C378.8333335090406 401.40955382057774 380.3333335506555 398.22455373221544 382.0000002635609 397.79955372042457C383.66666697646633 397.3745537086337 384.3333336616285 400.61955379866055 386.0000003745339 400.3195537903376C387.66666708743935 400.0195537820146 388.3333337726015 396.25955367769996 390.0000004855069 396.3595536804743C391.66666719841237 396.4595536832486 392.33333388357454 400.29955378978275 394.00000059647994 400.79955380365436C395.6666673093854 401.299553817526 396.33333399454756 398.17205373075893 398.00000070745295 398.75955374705813C399.6666674203584 399.3470537633573 400.3333341055206 404.00705389264084 402.000000818426 403.61955388189034C403.6666675313314 403.2320538711398 404.33333421649354 397.5245537127952 406.000000929399 396.89955369545567C407.66666764230445 396.27455367811615 408.33333432746656 400.63205379900734 410.000001040372 400.61955379866055C411.66666775327747 400.60705379831376 412.3333344384396 396.57705368650846 414.00000115134503 396.83955369379106C415.6666678642505 397.10205370107366 416.3333345494126 401.3795538197454 418.00000126231805 401.8795538336171C419.66666797522345 402.3795538474887 421.16666801683834 399.78955377563364 422.00000137329107 399.23955376037486 " transform="rotate(6, 400, 400)"></path><path d="M389.00000007629393 401.1797750161183C389.4166667545203 400.7047750029402 390.1666667753277 399.1122749587591 391.00000013178044 398.89977495286365C391.83333348823317 398.6872749469682 392.1666668308143 400.30977499198167 393.00000018726695 400.1597749878202C393.8333335437197 400.00977498365864 394.16666688630073 398.12977493150134 395.00000024275346 398.1797749328885C395.8333335992062 398.22977493427567 396.1666669417873 400.14977498754274 397.00000029823997 400.39977499447855C397.8333336546927 400.64977500141435 398.16666699727375 399.08602495803086 399.0000003537265 399.37977496618043C399.8333337101792 399.67352497433 400.16666705276026 402.0035250389718 401.000000409213 401.8097750335965C401.8333337656657 401.61602502822126 402.16666710824677 398.76227494904896 403.0000004646995 398.4497749403792C403.8333338211522 398.13727493170944 404.1666671637333 400.31602499215506 405.000000520186 400.30977499198167C405.83333387663873 400.3035249918083 406.1666672192198 398.28852493590557 407.0000005756725 398.41977493954687C407.83333393212524 398.5510249431882 408.1666672747063 400.6897750025241 409.000000631159 400.9397750094599C409.8333339876117 401.18977501639574 410.5833340084192 399.8947749804682 411.00000068664554 399.6197749728388 " transform="rotate(3, 400, 400)"></path></g></svg>